<svg width="89" height="74" viewBox="0 0 89 74" fill="none" xmlns="http://www.w3.org/2000/svg">
<g clip-path="url(#clip0)">
<path d="M80.9602 24.8454C81.4093 25.6232 28.9011 58.6983 22.7786 60.168C21.8556 58.8973 10.5273 36.8863 9.07684 37.9041C15.7749 33.1983 23.1116 29.8642 30.2314 25.8889C42.1401 19.2118 56.808 11.5188 66.9037 2.32631C73.6469 8.63264 76.3865 17.1422 80.9602 24.8454Z" stroke="#0A3159" stroke-width="2.34298" stroke-linecap="round" stroke-linejoin="round"/>
<path d="M54.5477 29.9298C53.8291 20.4067 41.1429 24.3312 38.2515 30.2571C31.6745 43.8571 55.4518 41.961 54.5477 29.9298Z" fill="white" stroke="#0A3159" stroke-width="2.34298" stroke-linecap="round" stroke-linejoin="round"/>
<path d="M22.0158 35.6543C20.0167 36.1591 17.8166 37.8623 15.7982 38.3963C18.1588 40.298 17.8831 42.351 19.0526 44.5796" stroke="#0A3159" stroke-width="2.34298" stroke-linecap="round" stroke-linejoin="round"/>
<path d="M21.5003 50.3811C22.21 51.8291 24.0851 53.0462 24.9124 54.5886C28.8104 52.6086 32.6082 50.2987 36.4083 48.0867" stroke="#0A3159" stroke-width="2.34298" stroke-linecap="round" stroke-linejoin="round"/>
<path d="M57.8642 14.9579C60.7928 13.2671 63.7715 11.7097 66.3797 9.63568C67.308 10.7209 68.0603 11.945 68.6094 13.2633" stroke="#0A3159" stroke-width="2.34298" stroke-linecap="round" stroke-linejoin="round"/>
<path d="M63.3585 30.7235C67.2584 28.9499 69.8982 25.7123 73.661 23.8105C73.109 22.542 72.4316 20.7596 71.4468 19.7411" stroke="#0A3159" stroke-width="2.34298" stroke-linecap="round" stroke-linejoin="round"/>
<path d="M12.2625 42.1882C10.0232 43.5488 7.64442 44.6652 5.16699 45.5183C11.9766 51.0649 16.268 63.6836 20.9199 71.1162C39.3416 57.3511 60.4166 47.9159 79.1982 34.899C77.8269 32.1646 77.2805 31.2807 75.7188 28.6382" stroke="#0A3159" stroke-width="2.34298" stroke-linecap="round" stroke-linejoin="round"/>
</g>
<defs>
<clipPath id="clip0">
<rect width="78.8882" height="38.9247" fill="white" transform="translate(0.271484 39.4443) rotate(-30)"/>
</clipPath>
</defs>
</svg>
