<svg width="210" height="252" viewBox="0 0 210 242" fill="none" xmlns="http://www.w3.org/2000/svg">
<g clip-path="url(#clip0)">
<path d="M136.349 84.5855C149.911 85.9739 165.698 77.2396 170.251 64.4302C177.939 42.403 154.848 23.7608 134.015 27.6298C120.87 30.0908 110.525 42.9604 111.317 56.0036C112.019 67.9975 123.395 83.259 136.349 84.5855Z" fill="#09C7E7" fill-opacity="0.8" stroke="#0A3159" stroke-width="2.70075" stroke-linecap="round" stroke-linejoin="round"/>
<path d="M121.356 76.374C109.874 82.0512 93.4576 85.9864 93.6168 101.237C93.7502 116.92 114.826 125.817 117.68 141.453C126.803 191.233 40.7502 154.584 27.0179 195.228" stroke="#0A3159" stroke-width="2.70075" stroke-linecap="round" stroke-linejoin="round"/>
<path d="M148.757 143.596C143.753 146.022 138.041 146.564 132.669 145.122C130.986 144.624 115.607 137.581 116.381 136.334C116.965 135.239 117.426 134.083 117.755 132.888C119.264 128.823 123.986 123.998 127.47 121.426C130.066 119.662 132.901 118.278 135.891 117.317C141.833 115.346 148.124 114.64 154.357 115.247C157.641 115.5 160.878 115.332 164.201 115.883C165.256 116.058 173.437 118.82 173.745 118.538C165.326 126.349 159.61 138.645 148.757 143.596Z" stroke="#0A3159" stroke-width="2.70075" stroke-linecap="round" stroke-linejoin="round"/>
<path d="M72.8675 170.478C89.0634 142.463 58.041 121.242 43.5029 109.88C44.5579 133.22 33.6215 157.548 71.389 169.625" stroke="#0A3159" stroke-width="2.70075" stroke-linecap="round" stroke-linejoin="round"/>
<path d="M117.727 136.257C121.526 135.665 125.676 133.556 129.327 132.445C135.3 130.547 143.315 129.459 148.326 125.747" stroke="#0A3159" stroke-width="2.70075" stroke-linecap="round" stroke-linejoin="round"/>
<path d="M71.9884 167.634C71.5763 165.073 69.8378 162.693 68.6919 160.378C64.8567 152.668 60.8172 144.879 56.6396 137.351" stroke="#0A3159" stroke-width="2.70075" stroke-linecap="round" stroke-linejoin="round"/>
<path d="M149.849 55.6856C155.429 57.0131 152.94 47.8606 150.942 45.8159C145.021 39.5538 139.875 43.1359 141.461 50.8492C142.274 54.7172 148.549 62.6403 143.324 64.6543C136.467 67.263 125.276 58.0676 134.215 52.4721" stroke="white" stroke-width="2.70075" stroke-linecap="round" stroke-linejoin="round"/>
<path d="M156.849 44.4183C144.596 49.586 133.46 58.2324 123.376 66.6058C124.076 66.0308 124.743 65.4161 125.373 64.7649" stroke="white" stroke-width="2.70075" stroke-linecap="round" stroke-linejoin="round"/>
</g>
<defs>
<clipPath id="clip0">
<rect width="120.559" height="209.769" fill="white" transform="matrix(0.866312 0.499504 -0.500496 0.865739 104.989 0)"/>
</clipPath>
</defs>
</svg>
