<svg width="722" height="820" viewBox="0 0 722 820" fill="none" xmlns="http://www.w3.org/2000/svg">
<path d="M547.436 206.511C526.854 162.528 453.181 18.976 361.225 2.02903C326.127 -4.43897 293.148 21.815 293.927 57.495C294.448 81.368 308.213 111.782 354.091 145.724C380.204 165.043 367.066 206.501 334.601 207.591C333.979 207.612 333.348 207.629 332.71 207.641C332.71 207.641 212.38 212.786 251.132 283.506C262.695 304.608 282.51 319.952 305.551 326.888C327.88 333.609 356.27 348.216 342.958 377.648C342.958 377.648 309 468.66 377.634 459.113C402.908 455.597 424.96 440.133 437.772 418.065L546.364 231.023C550.72 223.52 551.113 214.369 547.436 206.511Z" fill="#FFFEFE" fill-opacity="0.1"/>
<path d="M315.44 886.16H666.851C711.904 886.16 737.756 834.864 710.953 798.65L600.423 649.313C596.359 643.822 589.904 640.619 583.073 640.704L359.55 643.488C349.683 643.611 341.198 650.508 339.062 660.142L294.687 860.304C291.745 873.576 301.846 886.16 315.44 886.16Z" fill="#FFFEFE" fill-opacity="0.1"/>
<path d="M315.702 104.559C319.187 104.559 321.341 104.385 321.747 104.349C327.248 103.86 331.311 99.0041 330.822 93.5031C330.333 88.0101 325.486 83.9461 320.001 84.4251C319.435 84.4711 276.268 87.6191 245.21 56.5611C241.304 52.6561 234.974 52.6561 231.067 56.5611C227.162 60.4661 227.162 66.798 231.067 70.704C261.743 101.379 300.829 104.559 315.702 104.559Z" fill="#FFFEFE" fill-opacity="0.1"/>
<path d="M54.676 399.221C59.686 399.221 64.0089 395.464 64.5969 390.366C70.0679 342.954 99.9219 332.549 101.19 332.129L98.146 322.604L95.1938 313.05C93.4238 313.597 51.76 327.144 44.729 388.074C44.096 393.56 48.0308 398.521 53.5168 399.154C53.9068 399.199 54.294 399.221 54.676 399.221Z" fill="#FFFEFE" fill-opacity="0.1"/>
<path d="M78.8879 152.508C82.3749 152.508 85.7618 150.681 87.6008 147.429C90.3198 142.621 88.6271 136.52 83.8201 133.802L14.925 94.8348C10.121 92.1138 4.01685 93.8078 1.29784 98.6158C-1.42116 103.424 0.271851 109.525 5.07885 112.243L73.9739 151.21C75.5289 152.09 77.2199 152.508 78.8879 152.508Z" fill="#FFFEFE" fill-opacity="0.1"/>
<path d="M181.929 135.749C169.629 135.749 159.658 125.778 159.658 113.478C159.658 101.178 169.629 91.207 181.929 91.207C194.229 91.207 204.2 101.178 204.2 113.478C204.2 125.778 194.229 135.749 181.929 135.749Z" fill="#FFFEFE" fill-opacity="0.1"/>
<path d="M44.4497 283.165C32.1498 283.165 22.1787 273.194 22.1787 260.894C22.1787 248.594 32.1498 238.623 44.4497 238.623C56.7496 238.623 66.7207 248.594 66.7207 260.894C66.7207 273.194 56.7496 283.165 44.4497 283.165Z" fill="#FFFEFE" fill-opacity="0.1"/>
<path d="M632.131 44.542C619.831 44.542 609.86 34.5709 609.86 22.271C609.86 9.97108 619.831 0 632.131 0C644.431 0 654.402 9.97108 654.402 22.271C654.402 34.5709 644.431 44.542 632.131 44.542Z" fill="#FFFEFE" fill-opacity="0.1"/>
<path d="M423.285 80.8178C417.727 41.1808 483.124 34.9968 483.124 34.9968C592.36 28.6338 594.481 106.054 594.481 106.054C666.598 176.05 649.629 249.758 649.629 249.758C642.205 287.407 646.978 311.27 646.978 311.27C680.916 401.947 635.909 454.368 635.909 454.368C600.844 392.932 534.087 340.06 546.155 317.061L560.544 292.711C569.559 278.394 582.815 265.137 582.815 265.137C616.753 237.033 598.193 218.473 598.193 218.473C584.936 206.807 569.558 257.183 569.558 257.183C563.195 240.214 576.452 203.095 576.452 203.095C576.452 146.356 525.015 143.704 525.015 143.704C482.593 151.658 447.065 121.963 447.065 121.963C439.578 113.8 434.093 106.393 430.259 99.6688L419.793 198.853C385.37 138.515 408.334 98.2148 423.285 80.8178Z" fill="#08294A" fill-opacity="0.8"/>
<path d="M473.801 309.01C477.936 309.01 482.436 308.653 487.329 307.842C490.591 307.453 543.174 300.895 556.51 282.002C557.624 280.422 557.248 278.239 555.669 277.124C554.09 276.01 551.906 276.386 550.791 277.965C541.089 291.709 501.04 299.181 486.427 300.9C486.371 300.907 486.316 300.915 486.261 300.923C481.802 301.666 477.714 301.991 473.981 301.992C448.121 301.993 439.087 286.412 438.987 286.232C438.885 286.051 438.769 285.88 438.638 285.72C395.487 233.036 417.741 208.394 417.971 208.152C418.055 208.063 418.135 207.969 418.21 207.871C428.485 194.423 429.829 165.238 429.882 164.002C429.887 163.89 429.886 163.778 429.88 163.667C428.549 138.911 431.086 121.872 433.448 111.937C436.002 101.201 438.902 96.2379 438.931 96.1889C439.914 94.5319 439.377 92.3849 437.724 91.3939C436.072 90.4039 433.931 90.9289 432.935 92.5769C432.414 93.4359 420.241 114.176 422.879 163.864C422.763 166.141 421.244 192.204 412.734 203.506C410.381 206.141 387.599 234.316 433.049 289.948C434.613 292.522 445.715 309.01 473.801 309.01Z" fill="#08294A" fill-opacity="0.8"/>
<path d="M464.033 225.685C465.391 225.685 466.683 224.89 467.252 223.563C468.014 221.786 467.19 219.729 465.414 218.967C461.692 217.372 458.368 212.189 456.475 208.513C463.743 204.158 470.787 194.187 471.686 192.889C472.786 191.3 472.389 189.121 470.801 188.02C469.21 186.92 467.031 187.315 465.931 188.903C462.509 193.838 455.396 202.148 450.877 203.439C449.93 203.71 449.14 204.368 448.702 205.251C448.264 206.135 448.221 207.162 448.579 208.08C449.123 209.468 454.132 221.746 462.656 225.399C463.105 225.593 463.573 225.685 464.033 225.685Z" fill="#08294A" fill-opacity="0.8"/>
<path d="M486.306 244.985C486.306 244.985 453.959 255.59 440.702 238.622C440.702 238.622 437.52 273.09 460.322 274.15C460.323 274.15 481.003 266.196 486.306 244.985Z" fill="#08294A" fill-opacity="0.8"/>
<path d="M543.573 190.156C543.819 190.156 544.069 190.13 544.319 190.075C546.209 189.664 547.407 187.801 546.996 185.911C545.254 177.898 541.395 172.077 535.526 168.61C525.311 162.576 512.875 166.176 512.351 166.332C510.498 166.884 509.444 168.833 509.996 170.686C510.548 172.535 512.489 173.593 514.341 173.044C514.442 173.015 524.449 170.169 532.001 174.659C536.105 177.098 538.849 181.385 540.156 187.4C540.512 189.037 541.961 190.156 543.573 190.156Z" fill="#08294A" fill-opacity="0.8"/>
<path d="M440.549 161.522C441.893 161.522 443.175 160.743 443.753 159.435C444.739 157.201 445.935 156.675 446.747 156.474C450.474 155.551 456.37 159.356 458.144 160.762C459.655 161.96 461.858 161.709 463.059 160.199C464.26 158.688 464.014 156.491 462.504 155.287C461.534 154.513 452.805 147.775 445.085 149.675C442.692 150.262 439.409 151.942 437.348 156.609C436.568 158.377 437.369 160.443 439.136 161.224C439.597 161.425 440.078 161.522 440.549 161.522Z" fill="#08294A" fill-opacity="0.8"/>
<path d="M543.138 720.077C544.267 720.077 545.375 719.532 546.051 718.522L596.862 642.514C596.937 642.4 597.007 642.283 597.069 642.16C597.322 641.665 622.492 592.481 634.828 577.576C635.949 576.222 635.891 574.247 634.693 572.96C634.052 572.272 570.388 503.84 551.588 480.86C550.363 479.367 548.161 479.144 546.662 480.368C545.167 481.593 544.946 483.798 546.17 485.294C563.187 506.092 616.422 563.567 627.531 575.535C614.599 592.717 592.796 635.145 590.928 638.793L540.231 714.631C539.157 716.238 539.589 718.412 541.196 719.486C541.794 719.887 542.469 720.077 543.138 720.077Z" fill="#08294A" fill-opacity="0.8"/>
<path d="M568.145 740.489C568.638 740.489 569.139 740.385 569.616 740.163C606.667 722.98 670.01 629.012 672.687 625.02C672.765 624.904 672.835 624.784 672.899 624.66C700.905 569.725 691.432 546.784 691.015 545.834C690.97 545.731 690.92 545.632 690.866 545.534L610.264 401.299C610.107 401.018 609.911 400.759 609.683 400.532L569.912 360.761C569.71 360.559 569.483 360.382 569.238 360.235C545.403 345.934 553.704 319.879 553.791 319.617C554.399 317.782 553.404 315.802 551.569 315.194C549.735 314.586 547.753 315.581 547.146 317.416C547.042 317.729 537.138 348.811 565.261 366.011L604.389 405.138L684.64 548.744C685.204 550.347 691.919 571.848 666.758 621.291C663.658 625.88 601.245 717.778 566.669 733.813C564.915 734.625 564.153 736.707 564.967 738.46C565.56 739.738 566.825 740.489 568.145 740.489Z" fill="#08294A" fill-opacity="0.8"/>
<path d="M444.142 722.053C476.405 722.054 502.989 711.322 520.422 701.624C541.951 689.649 554.259 676.935 554.773 676.399C555.627 675.508 555.949 674.234 555.621 673.045C544.047 631.14 583.711 521.75 584.112 520.649C584.691 519.066 584.059 517.295 582.609 516.437C581.16 515.575 579.302 515.874 578.192 517.141C566.545 530.436 555.851 537.174 546.404 537.174C546.332 537.174 546.259 537.174 546.186 537.173C539.692 537.102 533.617 533.746 528.132 527.201C517.538 514.559 515.241 496.47 522.28 481.115C540.705 440.923 593.886 382.085 594.422 381.495C595.458 380.353 595.625 378.668 594.833 377.346C594.38 376.589 583.551 358.703 567.504 350.077C565.865 349.198 563.826 349.751 562.858 351.338C562.462 351.986 522.89 416.505 486.9 443.885C474.369 453.416 457.028 453.873 443.749 445.021L419.311 428.729C419.235 428.678 419.157 428.63 419.078 428.586C418.64 427.805 416.663 422.932 421.736 404.711L451.865 335.467C452.524 333.952 452.035 332.183 450.69 331.222C450.172 330.853 437.85 322.228 424.048 327.629C423.353 327.901 422.762 328.389 422.363 329.021L344.413 452.575C344.364 452.652 344.317 452.732 344.275 452.813C344.035 453.27 338.407 464.216 339.303 483.373C340.77 514.751 358.571 543.802 373.245 562.647C374.433 564.172 376.634 564.445 378.157 563.258C379.682 562.07 379.956 559.871 378.768 558.346C331.503 497.649 349.344 458.386 350.421 456.166L427.638 333.775C434.415 331.585 440.834 333.883 444.196 335.541L415.219 402.138C415.155 402.285 415.101 402.436 415.058 402.591C410.918 417.374 410.237 427.308 413.031 432.117C413.895 433.604 414.924 434.351 415.686 434.724L439.864 450.843C455.627 461.352 476.231 460.792 491.136 449.453C506.726 437.594 524.548 418.077 544.107 391.444C555.032 376.569 563.465 363.515 567.009 357.903C576.917 364.247 584.454 374.401 587.433 378.797C577.737 389.672 533.064 440.785 515.914 478.195C507.755 495.994 510.443 516.993 522.764 531.695C529.621 539.878 537.475 544.075 546.107 544.17C546.204 544.172 546.301 544.172 546.398 544.172C554.695 544.173 563.46 540.285 572.57 532.585C562.198 563.709 540.046 637.02 548.356 672.879C540.644 680.182 500.823 715.049 444.151 715.051C439.823 715.052 435.401 714.848 430.882 714.413C414.335 712.822 399.167 704.891 389.266 692.652C376.099 676.377 375.16 658.006 386.475 638.05C387.428 636.368 386.838 634.233 385.157 633.279C383.477 632.327 381.34 632.917 380.386 634.597C364.348 662.882 373.404 684.174 383.825 697.054C394.9 710.743 411.807 719.611 430.213 721.381C434.961 721.841 439.611 722.053 444.142 722.053ZM418.242 428.252C418.243 428.252 418.244 428.252 418.244 428.252C418.244 428.252 418.243 428.252 418.242 428.252ZM418.231 428.249C418.233 428.25 418.235 428.25 418.237 428.25C418.235 428.25 418.233 428.25 418.231 428.249ZM418.219 428.246C418.222 428.247 418.225 428.248 418.228 428.248C418.225 428.248 418.222 428.247 418.219 428.246Z" fill="#08294A" fill-opacity="0.8"/>
<path d="M396.693 658.387C397.354 658.387 398.022 658.2 398.615 657.81C400.229 656.747 400.676 654.576 399.613 652.961C399.309 652.501 369.226 606.357 363.044 557.408L358.794 527.56C358.523 525.647 356.743 524.312 354.836 524.588C352.922 524.86 351.592 526.633 351.864 528.546L356.106 558.339C362.49 608.886 392.494 654.879 393.768 656.812C394.44 657.833 395.555 658.387 396.693 658.387Z" fill="#08294A" fill-opacity="0.8"/>
<path d="M460.32 361.964C461.529 361.964 462.705 361.337 463.353 360.215C483.658 325.093 474.494 304.78 474.093 303.932C473.268 302.183 471.179 301.437 469.434 302.261C467.694 303.082 466.945 305.153 467.752 306.896C467.885 307.197 475.521 325.181 457.292 356.71C456.325 358.384 456.897 360.524 458.57 361.492C459.123 361.813 459.725 361.964 460.32 361.964Z" fill="#08294A" fill-opacity="0.8"/>
<path d="M446.46 342.612C446.569 342.612 446.681 342.607 446.792 342.596C455.588 341.767 471.865 335.476 472.554 335.208C474.357 334.508 475.249 332.48 474.55 330.679C473.851 328.878 471.822 327.982 470.021 328.683C469.861 328.745 453.963 334.89 446.136 335.627C444.211 335.808 442.798 337.515 442.98 339.439C443.15 341.253 444.674 342.612 446.46 342.612Z" fill="#08294A" fill-opacity="0.8"/>
<path d="M224.352 457.943C225.01 457.943 225.671 457.757 226.253 457.381L366.245 366.704C366.436 366.58 366.614 366.438 366.778 366.28C382.663 350.891 417.26 347.199 417.608 347.163C419.531 346.967 420.93 345.249 420.735 343.327C420.539 341.405 418.812 340.003 416.9 340.2C415.39 340.353 379.885 344.13 362.159 361.011L224.776 449.998C216.941 442.168 186.698 409.146 168.304 349.478C168.09 348.795 147.424 282.431 147.773 263.849L149.767 250.709L161.618 229.07C162.781 226.946 163.049 224.495 162.37 222.168L152.941 189.915C152.566 188.632 151.494 187.675 150.176 187.448C145.193 186.591 135.131 187.875 132.697 198.886C131.844 202.743 132.263 206.864 133.909 210.802C135.47 214.539 137.896 221.72 136.612 227.825C136.214 229.717 137.424 231.573 139.316 231.971C141.207 232.368 143.064 231.159 143.462 229.267C145.137 221.309 142.242 212.592 140.368 208.104C139.282 205.503 138.993 202.838 139.533 200.396C140.648 195.35 144.459 194.338 146.91 194.231L155.65 224.129C155.802 224.652 155.74 225.227 155.478 225.706L143.33 247.889C143.134 248.248 143.002 248.639 142.94 249.045L140.819 263.018C140.798 263.16 140.784 263.303 140.78 263.446C140.24 282.896 160.746 348.758 161.619 351.552C183.394 422.19 220.46 455.669 222.027 457.06C222.686 457.646 223.516 457.943 224.352 457.943Z" fill="#08294A" fill-opacity="0.8"/>
<path d="M197.914 526.484C241.637 526.484 339.621 482.66 344.166 480.616C345.929 479.823 346.716 477.751 345.923 475.988C345.13 474.224 343.057 473.441 341.295 474.231C340.102 474.768 222.103 527.557 189.182 518.553C187.062 517.21 174.693 508.835 162.04 488.87C138.816 452.224 132.526 405.444 131.34 372.654C131.336 372.546 131.327 372.439 131.313 372.331L117.526 265.746C117.517 265.676 117.506 265.607 117.493 265.538L114.311 248.913C114.216 248.416 114.015 247.947 113.721 247.536L86.7207 209.76C85.2787 207.742 85.2146 205.092 86.5586 203.008L114.345 159.917C115.393 158.292 114.925 156.126 113.3 155.079C111.679 154.032 109.509 154.499 108.462 156.124L80.6758 199.215C77.7668 203.728 77.9046 209.465 81.0256 213.831L107.58 250.983L110.599 266.751L124.351 373.07C125.591 406.911 132.173 455.149 156.446 493.116C171.19 516.179 185.429 524.484 186.028 524.827C186.261 524.961 186.51 525.066 186.768 525.143C189.868 526.065 193.632 526.484 197.914 526.484Z" fill="#08294A" fill-opacity="0.8"/>
<path d="M108.752 215.078C110.685 215.078 112.252 213.511 112.252 211.578C112.252 207.027 109.636 201.675 108.053 198.853L121.834 175.72C122.823 174.059 122.279 171.911 120.618 170.922C118.959 169.932 116.81 170.476 115.82 172.137L100.972 197.06C100.292 198.201 100.317 199.627 101.034 200.744C102.664 203.288 105.251 208.483 105.251 211.578C105.252 213.511 106.819 215.078 108.752 215.078Z" fill="#08294A" fill-opacity="0.8"/>
<path d="M118.831 215.079C120.474 215.079 121.939 213.917 122.264 212.245L125.59 195.078C125.957 193.18 124.717 191.344 122.819 190.976C120.926 190.608 119.085 191.849 118.716 193.747L115.39 210.913C115.023 212.811 116.263 214.647 118.161 215.015C118.385 215.058 118.61 215.079 118.831 215.079Z" fill="#08294A" fill-opacity="0.8"/>
<path d="M132.664 248.485H137.886C139.974 248.485 141.959 247.583 143.332 246.01C144.705 244.437 145.332 242.348 145.05 240.279L126.977 107.745C126.491 104.181 123.412 101.492 119.814 101.492H113.587C111.489 101.492 109.497 102.401 108.124 103.987C106.749 105.573 106.133 107.674 106.431 109.751L125.508 242.284C126.016 245.82 129.093 248.485 132.664 248.485ZM119.813 108.493C119.927 108.493 120.025 108.578 120.041 108.692L138.114 241.224C138.118 241.251 138.128 241.327 138.059 241.406C137.99 241.485 137.913 241.485 137.885 241.485H132.663C132.549 241.485 132.451 241.4 132.434 241.287L113.358 108.755C113.354 108.727 113.343 108.651 113.413 108.571C113.481 108.492 113.558 108.492 113.586 108.492H119.813V108.493ZM123.508 108.219H123.498H123.508Z" fill="#08294A" fill-opacity="0.8"/>
<path d="M311.229 849.893C312.807 849.893 314.24 848.818 314.627 847.216C327.701 793.282 344.516 749.324 356.319 721.945C369.114 692.265 378.943 675.128 379.041 674.958C380.006 673.284 379.432 671.144 377.757 670.178C376.082 669.211 373.944 669.787 372.977 671.461C372.878 671.634 362.893 689.033 349.948 719.044C338.02 746.697 321.03 791.095 307.825 845.568C307.37 847.446 308.523 849.339 310.402 849.794C310.678 849.86 310.956 849.893 311.229 849.893Z" fill="#08294A" fill-opacity="0.8"/>
<path d="M646.873 819.669C647.268 819.669 647.669 819.602 648.061 819.46C649.879 818.804 650.821 816.797 650.165 814.98C639.093 784.32 612.864 745.912 592.811 719.089C591.655 717.542 589.461 717.223 587.913 718.382C586.365 719.539 586.048 721.733 587.206 723.28C606.975 749.721 632.803 787.507 643.582 817.356C644.095 818.782 645.44 819.669 646.873 819.669Z" fill="#08294A" fill-opacity="0.8"/>
<path d="M563.039 690.315C563.821 690.315 564.608 690.054 565.261 689.518C566.753 688.29 566.968 686.084 565.74 684.591C559.158 676.588 554.928 671.726 554.886 671.677C553.615 670.221 551.407 670.068 549.948 671.336C548.49 672.606 548.337 674.816 549.606 676.274C549.647 676.322 553.819 681.119 560.333 689.039C561.026 689.88 562.028 690.315 563.039 690.315Z" fill="#08294A" fill-opacity="0.8"/>
<path d="M591.835 748.572C593.654 748.572 595.19 747.166 595.322 745.322C595.46 743.396 594.012 741.723 592.089 741.582C591.585 741.541 554.688 738.094 530.623 691.713C529.733 689.997 527.622 689.326 525.904 690.219C524.188 691.109 523.519 693.222 524.41 694.938C550.414 745.057 589.912 748.444 591.581 748.564C591.666 748.569 591.751 748.572 591.835 748.572Z" fill="#08294A" fill-opacity="0.8"/>
<path d="M355.332 783.08C356.004 783.08 356.682 782.888 357.281 782.485C389.885 760.584 394.084 721.204 394.247 719.539C394.435 717.615 393.028 715.903 391.104 715.715C389.155 715.523 387.469 716.934 387.28 718.857C387.227 719.372 383.127 756.691 353.377 776.675C351.773 777.753 351.346 779.927 352.424 781.532C353.099 782.537 354.206 783.08 355.332 783.08Z" fill="#08294A" fill-opacity="0.8"/>
<path d="M513.353 875.345C514.92 875.345 516.347 874.283 516.746 872.694C517.215 870.819 516.076 868.919 514.2 868.449C446.786 851.572 412.051 778.831 411.708 778.098C410.888 776.347 408.808 775.593 407.055 776.41C405.305 777.228 404.548 779.31 405.367 781.061C405.731 781.841 414.492 800.408 432.051 821.395C448.321 840.843 475.485 865.971 512.502 875.239C512.786 875.311 513.072 875.345 513.353 875.345Z" fill="#08294A" fill-opacity="0.8"/>
<path d="M519.149 208.401C515.013 207.845 512.404 201.864 513.323 195.043C514.241 188.222 518.338 183.144 522.474 183.701C526.61 184.258 529.218 190.238 528.3 197.059C527.382 203.88 523.285 208.958 519.149 208.401Z" fill="#08294A" fill-opacity="0.8"/>
<path d="M444.701 196.012C440.565 195.455 437.957 189.474 438.875 182.653C439.793 175.833 443.89 170.755 448.026 171.311C452.162 171.868 454.77 177.849 453.852 184.669C452.934 191.49 448.837 196.568 444.701 196.012Z" fill="#08294A" fill-opacity="0.8"/>
<path d="M484.815 78.9099C485.876 84.8289 491.166 89.2089 497.345 88.9649C536.476 87.4209 554.002 115.401 554.729 116.593C558.169 122.413 565.654 124.306 571.474 120.866C577.293 117.426 579.202 109.885 575.761 104.064C574.754 102.361 550.477 62.3689 496.379 64.5039C489.624 64.7699 484.364 70.4619 484.631 77.2169C484.654 77.7919 484.716 78.3579 484.815 78.9099Z" fill="white"/>
<path d="M461.971 85.317C454.934 85.317 449.23 79.6126 449.23 72.576C449.23 65.5393 454.934 59.835 461.971 59.835C469.008 59.835 474.712 65.5393 474.712 72.576C474.712 79.6126 469.008 85.317 461.971 85.317Z" fill="white"/>
<path d="M396.699 386.279C398.252 386.279 399.828 385.916 401.302 385.151C477.734 345.432 505.242 267.443 506.376 264.143C508.17 258.919 505.39 253.231 500.166 251.437C494.955 249.646 489.264 252.417 487.465 257.634C487.21 258.368 461.236 331.466 392.079 367.405C387.179 369.952 385.27 375.989 387.817 380.89C389.597 384.315 393.086 386.279 396.699 386.279Z" fill="white"/>
<path d="M320.849 82.578C321.451 82.578 322.061 82.523 322.673 82.411C328.105 81.41 331.696 76.195 330.694 70.764C328.015 56.228 329.504 45.691 335.12 39.446C342.118 31.665 354.448 32.236 354.565 32.242C360.083 32.673 364.877 28.541 365.298 23.034C365.719 17.527 361.597 12.722 356.09 12.301C355.194 12.231 333.985 10.798 320.248 26.073C310.265 37.175 307.161 53.431 311.025 74.39C311.915 79.207 316.12 82.577 320.849 82.578Z" fill="white"/>
<path d="M268.93 266.386C271.446 266.386 273.963 265.443 275.908 263.549C301.588 238.529 340.739 248.208 341.133 248.309C346.487 249.682 351.931 246.457 353.305 241.107C354.677 235.757 351.453 230.308 346.104 228.936C344.057 228.412 295.586 216.452 261.952 249.224C257.996 253.078 257.914 259.41 261.768 263.365C263.727 265.376 266.328 266.386 268.93 266.386Z" fill="white"/>
<path d="M531.343 856.394C532.894 856.394 534.467 856.033 535.94 855.268C592.641 825.85 597.43 771.733 597.607 769.443C598.031 763.937 593.91 759.13 588.403 758.706C582.894 758.299 578.113 762.385 577.669 767.87C577.508 769.752 573.251 813.38 526.73 837.516C521.828 840.059 519.916 846.095 522.459 850.997C524.238 854.427 527.728 856.394 531.343 856.394Z" fill="white"/>
<path d="M389.982 868.586C392.486 868.586 394.992 867.651 396.934 865.774C400.895 861.942 401.007 855.629 397.192 851.658C397.011 851.468 388.206 842.076 379.945 824.446C372.314 808.161 363.582 781.255 365.317 745.558C365.586 740.042 361.331 735.353 355.814 735.084C350.293 734.803 345.609 739.07 345.34 744.587C341.576 821.999 381.109 863.798 382.793 865.539C384.755 867.566 387.368 868.586 389.982 868.586Z" fill="white"/>
</svg>
