<svg width="210" height="242" viewBox="0 0 210 242" fill="none" xmlns="http://www.w3.org/2000/svg">
<g clip-path="url(#clip0)">
<path d="M136.348 84.5852C149.91 85.9736 165.697 77.2393 170.25 64.4299C177.938 42.4028 154.847 23.7605 134.014 27.6296C120.869 30.0905 110.524 42.9602 111.316 56.0034C112.018 67.9973 123.395 83.2588 136.348 84.5852Z" fill="#09C7E7" fill-opacity="0.8" stroke="#0A3159" stroke-width="2.70075" stroke-linecap="round" stroke-linejoin="round"/>
<path d="M121.355 76.374C109.873 82.0512 93.4566 85.9864 93.6159 101.237C93.7492 116.92 114.825 125.817 117.679 141.453C126.802 191.233 40.7492 154.584 27.0169 195.228" stroke="#0A3159" stroke-width="2.70075" stroke-linecap="round" stroke-linejoin="round"/>
<path d="M148.757 143.596C143.753 146.022 138.041 146.564 132.669 145.122C130.986 144.624 115.607 137.581 116.38 136.334C116.964 135.239 117.425 134.083 117.755 132.888C119.264 128.823 123.985 123.998 127.469 121.426C130.065 119.662 132.901 118.278 135.89 117.317C141.833 115.346 148.124 114.64 154.356 115.247C157.64 115.5 160.878 115.332 164.2 115.883C165.255 116.058 173.437 118.82 173.744 118.538C165.325 126.349 159.609 138.645 148.757 143.596Z" stroke="#0A3159" stroke-width="2.70075" stroke-linecap="round" stroke-linejoin="round"/>
<path d="M72.867 170.478C89.0629 142.463 58.0405 121.242 43.5024 109.88C44.5574 133.22 33.6211 157.548 71.3885 169.625" stroke="#0A3159" stroke-width="2.70075" stroke-linecap="round" stroke-linejoin="round"/>
<path d="M117.726 136.257C121.525 135.665 125.675 133.556 129.326 132.445C135.299 130.547 143.314 129.459 148.325 125.747" stroke="#0A3159" stroke-width="2.70075" stroke-linecap="round" stroke-linejoin="round"/>
<path d="M71.9879 167.634C71.5758 165.073 69.8373 162.693 68.6914 160.378C64.8562 152.668 60.8168 144.879 56.6392 137.351" stroke="#0A3159" stroke-width="2.70075" stroke-linecap="round" stroke-linejoin="round"/>
<path d="M149.849 55.6856C155.429 57.0131 152.94 47.8606 150.942 45.8159C145.021 39.5538 139.874 43.1359 141.461 50.8492C142.274 54.7172 148.549 62.6403 143.323 64.6543C136.466 67.263 125.276 58.0676 134.214 52.4721" stroke="white" stroke-width="2.70075" stroke-linecap="round" stroke-linejoin="round"/>
<path d="M156.849 44.4181C144.596 49.5857 133.46 58.2321 123.376 66.6055C124.076 66.0305 124.743 65.4159 125.373 64.7647" stroke="white" stroke-width="2.70075" stroke-linecap="round" stroke-linejoin="round"/>
</g>
<defs>
<clipPath id="clip0">
<rect width="120.559" height="209.769" fill="white" transform="matrix(0.866312 0.499504 -0.500496 0.865739 104.989 0)"/>
</clipPath>
</defs>
</svg>
