<svg width="714" height="885" viewBox="0 0 714 885" fill="none" xmlns="http://www.w3.org/2000/svg">
<path d="M16.1287 257.081L66.9995 390.927L126.032 347.347L80.1232 226.447L16.1287 257.081Z" fill="#FFFEFE" fill-opacity="0.2"/>
<path d="M619.936 884.143H366.752C314.829 884.143 272.739 842.052 272.739 790.13V564.581C272.739 512.659 314.829 470.568 366.752 470.568H619.936C671.858 470.568 713.949 512.659 713.949 564.581V790.131C713.949 842.052 671.858 884.143 619.936 884.143Z" fill="#FFFEFE" fill-opacity="0.1"/>
<path d="M439.321 346.718C399.454 339.074 323.423 317.998 400.484 277.309C400.484 277.309 542.735 252.686 510.521 195.777C500.188 177.525 479.085 168.302 458.456 172.087C437.497 175.933 407.879 185.233 383.566 207.692C374.187 216.356 361.518 220.744 348.889 218.861C331.812 216.315 315.631 205.916 338.069 170.384C338.069 170.384 417.005 90.0925 386.09 27.508C369.393 -6.29208 322.813 -9.74976 301.906 21.6208C287.929 42.5932 278.177 78.4253 285.058 139.639C286.364 151.265 279.763 162.606 268.736 166.51C258.459 170.147 245.595 167.073 235.244 140.225C235.244 140.225 238.695 96.266 222.748 66.8937C206.308 36.6121 161.37 40.8078 150.147 73.3854C143.826 91.7367 141.965 116.791 158.958 144.501C158.958 144.501 178.384 195.372 126.954 203.424C126.954 203.424 44.1665 247.137 110.032 330.794C110.032 330.794 134.779 385.239 190.927 362.14C190.927 362.14 226.327 351.118 236.996 380.608C236.996 380.608 282.659 471.434 338.05 428.255C351.369 417.873 352.548 398.031 340.591 386.104C332.7 378.233 319.738 369.967 298.54 363.131C298.54 363.131 281.331 359.778 294.503 354.033C302.378 350.598 311.354 350.758 319.23 354.185C359.608 371.758 505.2 432.138 479.41 377.36C471.847 361.289 456.766 350.062 439.321 346.718Z" fill="#FFFEFE" fill-opacity="0.05"/>
<path d="M415.689 371.395C414.84 371.395 413.989 371.381 413.137 371.354C371.416 370.018 349.8 350.988 339.012 335.259C329.761 321.769 325.051 305.409 325.391 287.945C325.807 266.677 318.716 234.712 318.645 234.392C307.334 178.405 328.809 145.633 329.729 144.264C330.771 142.713 332.874 142.3 334.426 143.345C335.976 144.386 336.389 146.486 335.35 148.037C335.298 148.116 330.073 156.051 326.242 170.424C322.709 183.681 319.672 205.295 325.265 232.983C325.551 234.255 332.591 266.002 332.159 288.077C331.846 304.12 336.146 319.111 344.593 331.43C358.998 352.432 382.132 363.588 413.352 364.588C419.77 364.794 426.123 364.15 432.226 362.677C445.356 359.508 454.941 354.886 459.215 349.662C460.4 348.215 462.531 348.001 463.979 349.185C465.425 350.369 465.639 352.502 464.455 353.949C457.788 362.099 444.113 366.773 433.814 369.258C427.936 370.679 421.849 371.395 415.689 371.395Z" fill="#08294A" fill-opacity="0.8"/>
<path d="M368.598 291.962C360.167 291.962 353.679 288.461 349.929 285.761C346.629 283.385 345.769 278.775 347.972 275.266C352.116 268.662 355.234 253.462 356.086 248.163C356.382 246.316 358.115 245.061 359.965 245.358C361.81 245.655 363.067 247.392 362.77 249.237C362.635 250.071 359.423 269.755 353.705 278.866C353.435 279.297 353.428 279.939 353.884 280.267C358.268 283.423 367.39 287.958 379.265 282.869C380.983 282.132 382.974 282.929 383.71 284.647C384.447 286.366 383.65 288.355 381.933 289.092C377.102 291.162 372.628 291.962 368.598 291.962Z" fill="#08294A" fill-opacity="0.8"/>
<path d="M419.482 229.794C418.212 229.794 416.995 229.075 416.417 227.849C408.623 211.286 384.334 213.041 384.087 213.061C382.251 213.215 380.593 211.826 380.44 209.964C380.287 208.103 381.669 206.469 383.529 206.314C383.826 206.289 390.843 205.735 399.066 207.644C410.321 210.258 418.439 216.247 422.541 224.966C423.337 226.658 422.611 228.675 420.919 229.471C420.456 229.69 419.966 229.794 419.482 229.794Z" fill="#08294A" fill-opacity="0.8"/>
<path d="M328.164 215.656C327.297 215.656 326.431 215.325 325.77 214.665C324.448 213.343 324.448 211.199 325.77 209.877C336.7 198.948 353.25 205.424 353.949 205.706C355.683 206.403 356.525 208.375 355.827 210.109C355.13 211.842 353.165 212.682 351.431 211.991C351.258 211.923 338.292 206.93 330.559 214.666C329.896 215.326 329.03 215.656 328.164 215.656Z" fill="#08294A" fill-opacity="0.8"/>
<path d="M502.527 257.103C502.352 257.103 502.174 257.089 501.995 257.061C500.148 256.77 498.887 255.037 499.179 253.19C500.754 243.215 498.72 241.041 498.296 240.706C497.525 240.098 496.078 240.655 496.064 240.662C494.36 241.43 492.377 240.66 491.611 238.954C490.844 237.249 491.626 235.235 493.331 234.468C493.843 234.238 498.448 232.303 502.388 235.313C506.272 238.279 507.409 244.472 505.866 254.246C505.602 255.912 504.163 257.103 502.527 257.103Z" fill="#08294A" fill-opacity="0.8"/>
<path d="M493.963 392.099C492.255 392.099 490.788 390.811 490.601 389.076C488.239 367.113 492.303 339.275 502.679 306.335C510.369 281.92 518.876 263.614 518.961 263.432C519.751 261.738 521.768 261.006 523.459 261.797C525.154 262.588 525.886 264.603 525.094 266.297C524.762 267.008 491.924 338.072 497.331 388.352C497.531 390.211 496.186 391.879 494.328 392.08C494.206 392.092 494.084 392.099 493.963 392.099Z" fill="#08294A" fill-opacity="0.8"/>
<path d="M378.797 469.999C377.974 469.999 377.165 469.699 376.535 469.133C357.353 451.905 347.3 432.846 346.655 412.485C345.644 380.531 368.109 357.246 369.065 356.27C370.375 354.936 372.517 354.915 373.853 356.224C375.186 357.533 375.208 359.674 373.901 361.009C373.686 361.228 352.473 383.299 353.424 412.334C354.01 430.244 362.818 447.206 379.607 462.773C395.164 457.56 502.366 421.613 549.857 405.106C552.429 402.818 565.559 389.716 554.194 369.68C554.175 369.647 554.158 369.615 554.14 369.582C553.742 368.833 544.035 351.04 521.98 350.732C520.11 350.706 518.616 349.169 518.642 347.301C518.668 345.431 520.169 343.916 522.074 343.963C547.845 344.323 559.31 364.891 560.107 366.383C572.218 387.783 561.199 404.757 553.674 410.745C553.374 410.983 553.039 411.169 552.678 411.293C501.972 428.93 381.086 469.419 379.87 469.826C379.52 469.941 379.158 469.999 378.797 469.999Z" fill="#08294A" fill-opacity="0.8"/>
<path d="M386.813 467.312C385.275 467.312 383.885 466.258 383.52 464.697C383.094 462.876 384.225 461.056 386.045 460.63C461.001 443.108 554.282 443.144 561.721 443.163C571.955 440.362 579.309 434.606 583.585 426.051C595.569 402.083 580.878 363.481 579.712 360.504C567.54 338.683 551.237 324.802 531.252 319.244C516.262 315.074 504.659 317.397 504.546 317.42C502.713 317.803 500.925 316.628 500.541 314.801C500.158 312.974 501.323 311.183 503.149 310.796C503.675 310.685 516.209 308.12 532.71 312.623C547.844 316.753 569.329 327.876 585.735 357.408C585.801 357.528 585.861 357.65 585.913 357.778C586.093 358.22 590.338 368.762 592.984 382.753C596.593 401.837 595.469 417.423 589.642 429.08C584.397 439.57 575.441 446.549 563.022 449.824C562.731 449.901 562.429 449.946 562.126 449.936C561.168 449.924 464.524 449.235 387.587 467.222C387.328 467.282 387.068 467.312 386.813 467.312Z" fill="#08294A" fill-opacity="0.8"/>
<path d="M396.726 408.485C396.69 408.485 396.654 408.485 396.618 408.483C394.749 408.424 393.283 406.862 393.341 404.994L394.548 366.473C394.607 364.604 396.175 363.121 398.036 363.195C399.906 363.254 401.372 364.816 401.314 366.685L400.107 405.206C400.049 407.038 398.546 408.485 396.726 408.485Z" fill="#08294A" fill-opacity="0.8"/>
<path d="M386.816 443.249C386.322 443.249 385.826 443.141 385.364 442.922C384.214 442.375 383.467 441.229 383.432 439.955C383.376 437.901 382.208 389.472 394.575 374.455C395.763 373.012 397.899 372.805 399.34 373.993C400.783 375.182 400.99 377.316 399.802 378.759C392.073 388.143 390.262 416.965 390.146 433.192C410.938 418.44 440.477 404.14 478.092 390.629C508.535 379.693 533.212 373.389 533.458 373.326C535.27 372.865 537.111 373.961 537.573 375.773C538.033 377.586 536.937 379.427 535.125 379.887C534.155 380.134 437.569 404.964 388.886 442.542C388.281 443.009 387.551 443.249 386.816 443.249Z" fill="#08294A" fill-opacity="0.8"/>
<path d="M154.857 735.545C142.647 735.546 131.878 732.61 122.628 726.736C110.256 718.879 100.7 705.529 94.9958 688.132C91.0323 676.046 90.2005 666.033 90.0825 664.338L44.4218 427.127C44.2506 426.236 44.4431 425.314 44.9577 424.568C45.4722 423.821 46.2643 423.311 47.157 423.154C65.019 420.002 93.811 396.784 94.1002 396.549C95.0625 395.771 96.3731 395.577 97.5192 396.048C98.6643 396.518 99.4613 397.576 99.5977 398.807C110.538 497.745 148.49 590.425 158.652 613.89L228.161 506.178C251.626 459.387 307.266 407.915 309.626 405.745C309.954 405.443 310.338 405.209 310.756 405.057L351.101 390.309C352.857 389.667 354.801 390.571 355.443 392.326C356.085 394.081 355.181 396.025 353.426 396.668L313.722 411.181C311.07 413.657 297.976 426.022 282.753 442.815C267.148 460.029 246.046 485.55 234.134 509.372C234.079 509.483 234.018 509.59 233.951 509.693L160.941 622.831C160.272 623.866 159.094 624.462 157.861 624.372C156.63 624.286 155.543 623.539 155.025 622.418C154.54 621.372 107.284 518.363 93.5644 405.537C84.9245 412.044 66.3827 425.087 51.6902 429.066L96.7716 663.27C96.7996 663.417 96.818 663.567 96.8267 663.718C96.8499 664.117 99.4767 704.043 126.287 721.041C143.115 731.709 166.073 731.334 194.532 719.927L261.918 682.269C263.55 681.357 265.612 681.94 266.525 683.573C267.437 685.206 266.852 687.267 265.221 688.18L197.646 725.943C197.52 726.012 197.39 726.074 197.258 726.128C181.648 732.405 167.482 735.545 154.857 735.545Z" fill="#08294A" fill-opacity="0.8"/>
<path d="M277.366 754.236C277.094 754.236 276.818 754.203 276.543 754.135C274.729 753.681 273.626 751.843 274.079 750.03C278.039 734.192 271.069 712.07 270.321 709.778C239.383 646.636 255.853 615.625 256.569 614.333C256.635 614.215 256.708 614.102 256.787 613.992C279.347 582.836 283.973 518.307 284.017 517.659C284.145 515.794 285.753 514.405 287.624 514.511C289.488 514.638 290.898 516.252 290.772 518.117C290.725 518.797 289.596 535.009 285.56 555.466C280.13 582.991 272.344 603.946 262.421 617.753C261.345 619.96 248.184 649.339 276.5 707C276.564 707.13 276.619 707.263 276.665 707.401C277.019 708.439 285.294 733.081 280.646 751.669C280.263 753.209 278.883 754.236 277.366 754.236Z" fill="#08294A" fill-opacity="0.8"/>
<path d="M479.115 859.012C479.05 859.012 478.984 859.01 478.921 859.007L305.035 848.975C261.549 845.754 238.851 808.705 229.188 786.908C224.772 776.948 226.138 765.486 232.751 756.991C252.104 732.137 260.767 686.744 260.852 686.288C261.195 684.451 262.962 683.235 264.802 683.583C266.64 683.926 267.85 685.695 267.507 687.533C267.417 688.015 265.247 699.498 260.56 714.338C254.229 734.387 246.67 750.137 238.093 761.15C233.015 767.671 231.975 776.489 235.377 784.162C244.427 804.576 265.569 839.263 305.48 842.218L479.169 852.237C482.588 852.142 554.065 849.643 559.079 813.54C559.336 811.689 561.048 810.399 562.897 810.653C564.749 810.911 566.041 812.62 565.784 814.472C559.881 856.973 482.471 858.946 479.179 859.01C479.158 859.012 479.136 859.012 479.115 859.012Z" fill="#08294A" fill-opacity="0.8"/>
<path d="M441.332 823.022C392.769 823.022 333.306 818.559 287.722 800.949C282.72 799.016 279.021 794.731 277.829 789.484C276.627 784.2 278.125 778.693 281.833 774.754C297.386 758.229 323.279 725.736 321.941 693.772C321.685 687.657 324.251 681.958 328.981 678.139C333.648 674.37 339.66 673.073 345.478 674.585C373.382 681.83 416.919 688.315 465.868 678.081C473.394 676.507 481.184 678.29 487.236 682.975C493.231 687.612 496.876 694.617 497.238 702.192C498.482 728.276 503.988 765.563 523.157 795.081C526.316 799.945 526.683 805.947 524.137 811.138C521.609 816.294 516.678 819.656 510.947 820.133C494.981 821.459 470.062 823.022 441.332 823.022ZM340.713 680.743C338.016 680.743 335.398 681.657 333.234 683.406C330.19 685.864 328.539 689.539 328.704 693.489C329.323 708.272 324.696 739.091 286.763 779.392C284.569 781.723 283.719 784.853 284.43 787.983C285.133 791.073 287.221 793.498 290.16 794.633C361.403 822.154 467.9 816.915 510.383 813.385C513.718 813.108 516.585 811.153 518.056 808.157C519.542 805.126 519.325 801.616 517.476 798.769C497.484 767.982 491.756 729.433 490.472 702.515C490.207 696.922 487.515 691.752 483.091 688.329C478.607 684.861 472.835 683.54 467.251 684.708C417.02 695.21 372.379 688.563 343.774 681.139C342.759 680.874 341.729 680.743 340.713 680.743Z" fill="#08294A" fill-opacity="0.8"/>
<path d="M574.977 754.236C574.715 754.236 574.45 754.206 574.185 754.141C572.367 753.705 571.247 751.877 571.683 750.06C577.87 724.28 560.243 674.177 559.041 670.813C551.847 656.387 546.3 640.832 542.554 624.574C529.294 567.008 542.175 519.004 542.731 516.989C543.228 515.187 545.092 514.134 546.892 514.624C548.694 515.119 549.753 516.982 549.259 518.785C549.127 519.263 536.293 567.229 549.154 623.055C552.794 638.859 558.189 653.969 565.188 667.966C565.246 668.081 565.296 668.199 565.339 668.321C566.151 670.545 585.114 723.11 578.267 751.64C577.893 753.192 576.506 754.236 574.977 754.236Z" fill="#08294A" fill-opacity="0.8"/>
<path d="M627.738 867.938C601.312 867.938 576.471 859.253 575.24 858.817C574.305 858.485 573.563 857.76 573.208 856.832C540.142 770.128 544.983 720.246 545.206 718.165C545.237 717.864 545.31 717.571 545.42 717.289C548.744 708.812 547.106 663.191 545.195 634.594C545.07 632.729 546.481 631.115 548.347 630.991C550.19 630.886 551.826 632.276 551.951 634.143C552.442 641.485 556.56 705.527 551.905 719.263C551.722 721.517 550.94 733.736 553.439 754.395C555.964 775.27 562.446 809.221 578.968 852.923C585.829 855.143 615.52 864.002 641.503 860.232C653.119 858.548 661.878 848.283 661.878 836.354V536.019C660.995 531.163 646.975 459.389 587.391 424.24C585.781 423.29 585.245 421.214 586.196 419.604C587.146 417.994 589.222 417.461 590.831 418.409C609.361 429.339 635.375 450.832 654.083 491.153C665.245 515.212 668.471 534.372 668.603 535.176C668.633 535.357 668.648 535.54 668.648 535.723V836.354C668.648 851.623 657.395 864.769 642.474 866.933C637.601 867.64 632.641 867.938 627.738 867.938Z" fill="#08294A" fill-opacity="0.8"/>
<path d="M47.748 429.874C46.4143 429.874 45.1492 429.081 44.6134 427.769L39.82 416.054C36.1834 411.991 17.629 390.639 16.5061 376.883C16.4896 376.682 16.4906 376.48 16.5109 376.278L20.1543 339.067C20.3951 336.608 21.4716 334.277 23.1864 332.501L33.042 322.293C36.4919 318.719 42.0155 318.365 45.8949 321.468C49.3545 324.235 50.4474 329.039 48.5682 333.017L41.7776 356.491C41.2572 358.286 39.3799 359.319 37.5849 358.802C35.7888 358.283 34.7539 356.406 35.2733 354.61L42.1471 330.848C42.209 330.632 42.2931 330.424 42.3966 330.225C43.0108 329.045 42.7032 327.586 41.6644 326.756C40.5309 325.849 38.9186 325.953 37.9118 326.996L28.0562 337.204C27.3975 337.887 26.9836 338.783 26.8907 339.727L23.2793 376.617C24.3693 386.939 39.4593 405.584 45.2362 411.954C45.5003 412.246 45.7121 412.582 45.861 412.946L50.8769 425.207C51.5848 426.937 50.756 428.914 49.0257 429.621C48.6088 429.793 48.1745 429.874 47.748 429.874Z" fill="#08294A" fill-opacity="0.8"/>
<path d="M33.8164 382.5C33.5959 382.5 33.3734 382.479 33.149 382.434C31.3152 382.068 30.1266 380.284 30.4931 378.451L35.5089 353.371C35.6124 352.852 35.8359 352.366 36.1608 351.95L51.5206 332.298C54.6243 328.326 60.3259 327.427 64.5002 330.252C68.5866 333.016 69.9222 338.386 67.6078 342.743L61.1993 354.807L62.2728 378.964C62.356 380.832 60.9091 382.413 59.0414 382.496C57.1796 382.591 55.5934 381.133 55.5093 379.265L54.3941 354.185C54.3671 353.581 54.5025 352.981 54.7868 352.447L61.6287 339.568C62.3154 338.275 61.9188 336.682 60.707 335.862C59.469 335.024 57.7764 335.29 56.8547 336.468L41.9891 355.487L37.1309 379.779C36.8108 381.387 35.3967 382.5 33.8164 382.5Z" fill="#08294A" fill-opacity="0.8"/>
<path d="M67.2521 402.564C66.8788 402.564 66.4996 402.502 66.1273 402.371C64.3641 401.75 63.4375 399.816 64.0585 398.053L76.6289 362.354C76.9172 361.536 76.6144 360.629 75.8929 360.148C75.2758 359.737 74.6694 359.811 74.3618 359.892C74.0543 359.972 73.4885 360.207 73.1538 360.866L56.8945 392.906C56.0482 394.572 54.0114 395.238 52.3439 394.393C50.6765 393.546 50.0111 391.509 50.8574 389.842L67.1167 357.802C68.2357 355.596 70.2504 353.971 72.6432 353.342C75.0379 352.716 77.5903 353.141 79.6485 354.514C82.9475 356.713 84.3316 360.861 83.0143 364.6L70.4438 400.3C69.9554 401.694 68.6477 402.564 67.2521 402.564Z" fill="#08294A" fill-opacity="0.8"/>
<path d="M20.1832 376.926C19.0381 376.926 17.921 376.345 17.2846 375.295L9.18252 361.919C8.86238 361.39 8.69312 360.783 8.69312 360.165V314.099C8.69312 313.173 9.07227 312.288 9.74253 311.648L17.5448 304.212C18.8969 302.922 21.0402 302.974 22.3304 304.327C23.6196 305.68 23.5684 307.823 22.2153 309.112L15.4624 315.548V359.219L23.0751 371.787C24.0433 373.386 23.5326 375.468 21.9338 376.436C21.3855 376.768 20.781 376.926 20.1832 376.926Z" fill="#08294A" fill-opacity="0.8"/>
<path d="M67.2559 402.564C66.162 402.564 65.0884 402.035 64.4356 401.056C63.3987 399.501 63.8185 397.399 65.3747 396.361L97.7569 374.773C100.037 373.252 100.984 370.388 100.062 367.808L54.1631 239.49C53.5896 237.885 52.4067 236.643 50.8321 235.992C49.2576 235.339 47.5437 235.382 46.002 236.113L10.167 253.087C7.38246 254.406 6.05549 257.697 7.14551 260.579L33.094 329.193C33.7556 330.942 32.8735 332.896 31.1249 333.557C29.3762 334.218 27.4225 333.338 26.7609 331.588L0.812392 262.974C-1.51562 256.817 1.32015 249.787 7.26832 246.968L43.1044 229.994C46.3464 228.458 50.1068 228.363 53.4213 229.737C56.7358 231.108 59.3298 233.833 60.5378 237.21L106.436 365.529C108.409 371.041 106.383 377.16 101.513 380.406L69.1303 401.995C68.5529 402.379 67.901 402.564 67.2559 402.564Z" fill="#08294A" fill-opacity="0.8"/>
<path d="M96.2357 402.564C94.9609 402.564 93.7404 401.841 93.1659 400.609L86.561 386.459C85.7698 384.764 86.502 382.75 88.1965 381.959C89.8929 381.168 91.9056 381.901 92.6958 383.595L99.3007 397.746C100.092 399.44 99.3597 401.454 97.6652 402.245C97.2019 402.462 96.7154 402.564 96.2357 402.564Z" fill="#08294A" fill-opacity="0.8"/>
<path d="M399.102 251.268C403.564 250.015 405.63 243.474 403.716 236.658C401.803 229.843 396.635 225.333 392.173 226.585C387.711 227.838 385.645 234.379 387.558 241.195C389.472 248.011 394.64 252.521 399.102 251.268Z" fill="#08294A" fill-opacity="0.8"/>
<path d="M341.619 251.27C346.081 250.017 348.147 243.476 346.233 236.66C344.32 229.844 339.151 225.335 334.689 226.587C330.228 227.84 328.162 234.381 330.075 241.197C331.989 248.013 337.157 252.522 341.619 251.27Z" fill="#08294A" fill-opacity="0.8"/>
<path d="M372.194 331.51C371.913 331.51 371.735 331.503 371.678 331.502C369.811 331.417 368.365 329.836 368.449 327.968C368.532 326.105 370.131 324.67 371.97 324.738C372.414 324.755 382.509 325.019 387.406 316.898C388.372 315.296 390.454 314.783 392.053 315.747C393.654 316.712 394.169 318.793 393.203 320.393C386.864 330.907 374.861 331.51 372.194 331.51Z" fill="#08294A" fill-opacity="0.8"/>
<path d="M517.543 272.271L517.548 272.256C517.017 272.241 517.273 272.257 517.543 272.271Z" fill="#08294A" fill-opacity="0.8"/>
<path d="M580.398 155.619C577.209 151.925 576.473 146.726 578.446 142.261C588.268 120.038 578.65 107.941 571.92 102.65C568.656 100.084 566.335 96.5589 564.948 92.6447C561.331 82.4371 554.122 78.5587 547.869 77.222C540.914 75.7345 535.101 70.9702 531.964 64.5877C520.41 41.09 499.179 40.4855 486.55 42.595C480.082 43.6753 473.435 41.9779 468.276 37.9303C443.46 18.4599 424.386 32.8506 414.402 44.6551C409.041 50.993 400.876 54.1344 392.651 53.0144C350.28 47.2442 340.817 74.6861 338.711 86.4228C338.168 89.453 335.867 91.8265 332.867 92.5219C294.403 101.448 310.803 138.35 310.803 138.35C324.377 155.056 337.081 155.026 344.708 152.648C348.72 151.397 352.951 153.815 354.105 157.856C365.955 199.341 399.248 190.151 414.726 183.237C418.899 181.372 423.743 183.752 424.781 188.203C428.944 206.05 432.3 210.243 432.3 210.243C459.051 242.011 491.376 224.734 491.376 224.734C526.488 205.785 517.548 272.254 517.548 272.254C518.128 272.291 517.828 272.282 517.543 272.269L508.056 304.393C531.242 302.241 539.9 291.312 542.628 280.5C556.036 278.082 558.863 265.381 559.185 256.774C569.307 245.094 571.271 229.914 571.603 222.725C571.728 220.02 572.687 217.414 574.378 215.299C598.575 185.033 588.297 164.765 580.398 155.619Z" fill="#08294A" fill-opacity="0.8"/>
<path d="M538.322 149.501C532.506 149.501 527.434 145.214 526.61 139.29C521.4 101.774 491.773 89.8648 490.513 89.3764C484.386 87.0948 481.306 80.2917 483.586 74.1646C485.868 68.0375 492.72 64.9328 498.85 67.2154C500.644 67.8827 542.86 84.1681 550.063 136.033C550.962 142.51 546.442 148.489 539.965 149.388C539.414 149.465 538.865 149.501 538.322 149.501Z" fill="white"/>
<path d="M548.252 182.491C555.058 182.491 560.575 176.974 560.575 170.169C560.575 163.363 555.058 157.846 548.252 157.846C541.446 157.846 535.929 163.363 535.929 170.169C535.929 176.974 541.446 182.491 548.252 182.491Z" fill="white"/>
<path d="M126.034 266.798C124.627 266.798 123.198 266.491 121.842 265.843C117.023 263.538 115.003 257.726 117.308 252.908C118.051 251.354 136.218 214.688 197.788 200.192C202.986 198.971 208.194 202.191 209.418 207.39C210.643 212.59 207.42 217.797 202.221 219.021C150.277 231.25 135.332 260.105 134.722 261.327C133.066 264.791 129.626 266.798 126.034 266.798Z" fill="white"/>
<path d="M323.135 431.3C290.714 431.3 266.242 400.864 265.154 399.488C261.84 395.298 262.549 389.216 266.738 385.902C270.924 382.592 276.996 383.297 280.314 387.473C280.634 387.871 302.434 414.712 326.998 411.724C332.294 411.079 337.121 414.855 337.766 420.157C338.411 425.46 334.635 430.281 329.333 430.926C327.239 431.179 325.169 431.3 323.135 431.3Z" fill="white"/>
<path d="M346.91 132.887C345.153 132.887 343.377 132.41 341.779 131.408C337.253 128.569 335.887 122.6 338.725 118.075C372.857 63.6652 335.943 32.5945 334.355 31.2975C330.178 27.9685 329.511 21.9004 332.84 17.7231C336.168 13.5458 342.276 12.8756 346.453 16.2046C347.006 16.6457 360.071 27.2112 367.482 46.4455C379.75 78.2881 367.526 108.564 355.112 128.354C353.275 131.281 350.128 132.887 346.91 132.887Z" fill="white"/>
<path d="M679.691 613.385C679.579 613.385 679.467 613.383 679.352 613.379C674.013 613.196 669.835 608.718 670.019 603.38C672.552 529.921 628.773 514.078 626.908 513.439C621.828 511.79 619.081 506.347 620.73 501.266C622.379 496.185 627.867 493.413 632.951 495.064C633.591 495.272 648.785 500.337 663.159 516.709C686.384 543.166 690.221 578.805 689.351 604.047C689.172 609.272 684.879 613.385 679.691 613.385Z" fill="white"/>
<path d="M438.197 758.197C437.585 758.197 436.966 758.138 436.342 758.017C431.099 756.999 427.674 751.922 428.693 746.678C436.459 706.699 427.436 670.772 401.873 639.891C382.625 616.639 361.119 605.303 360.905 605.192C356.166 602.727 354.321 596.888 356.786 592.149C359.25 587.411 365.089 585.566 369.828 588.03C370.849 588.56 395.052 601.318 416.772 627.556C437.009 652 458.797 693.149 447.682 750.368C446.784 754.988 442.735 758.197 438.197 758.197Z" fill="white"/>
</svg>
