<svg width="641" height="786" viewBox="0 0 641 786" fill="none" xmlns="http://www.w3.org/2000/svg">
<path d="M217.267 616.566H539.98L463.191 783.309H163.268L217.267 616.566Z" fill="#FFFEFE" fill-opacity="0.1"/>
<path d="M0.0143362 125.311C0.565254 90.2665 16.3779 58.8221 80.8773 82.8034C80.8773 82.8034 118.193 90.106 162.255 185.536C162.255 185.536 190.954 241.877 207.236 212.379C207.236 212.379 108.432 79.3519 168.173 24.1048C170.692 21.775 173.249 19.4848 175.696 17.0794C184.514 8.41064 211.238 -12.8152 242.676 10.7807C254.752 19.8442 263.321 32.7591 267.718 47.2031C272.023 61.3442 281.716 83.6074 301.846 94.5828C313.824 101.114 328.444 100.475 339.93 93.112C374.189 71.1491 471.76 14.8216 504.347 62.6888C504.347 62.6888 567.495 137.743 443.47 168.864C433.915 171.262 426.426 178.993 424.944 188.733C423.335 199.309 428.972 211.015 460.718 212.379C460.718 212.379 632.24 233.381 541.294 327.89C541.294 327.89 471.54 387.616 392.733 303.402C392.733 303.402 346.179 293.082 379.79 395.398C379.79 395.398 406.22 506.445 337.655 510.254C313.361 511.603 290.514 498.567 278.535 477.39C266.944 456.899 254.067 425.229 255.664 387.405C255.664 387.405 256.443 357.799 229.292 369.19C219.933 373.116 212.173 380.082 206.936 388.777C192.8 412.249 151.482 469.033 102.192 428.541C102.192 428.541 61.264 382.459 147.096 344.875C147.096 344.875 170.401 337.271 139.139 302.387L41.6679 217.422C15.0599 194.229 -0.540872 160.605 0.0143362 125.311Z" fill="#FFFEFE" fill-opacity="0.1"/>
<path d="M382.635 100.67C406.211 106.862 468.615 118.978 488.446 80.3328C488.446 80.3328 509.458 12.1864 448.093 7.28307C441.778 6.77849 435.439 7.98751 429.706 10.6829C421.484 14.5479 407.875 20.7797 395.526 25.671C383.643 30.3778 370.799 32.016 358.082 30.7485C336.045 28.5509 290.808 31.1784 262.963 82.2284C262.963 82.2284 212.087 190.084 306.828 245.665L310.593 239.605C312.376 236.735 311.363 232.946 308.369 231.38C299.472 226.725 283.061 216.076 281.247 200.132C280.732 195.608 282.121 190.987 285.413 187.841C288.272 185.108 292.638 183.304 298.578 187.235C300.009 188.182 301.128 189.538 301.862 191.09L312.227 212.971C312.227 212.971 321.701 209.181 317.279 184.549C317.279 184.549 307.423 117.629 356.351 101.324C364.836 98.496 373.985 98.3981 382.635 100.67Z" fill="#08294A" fill-opacity="0.8"/>
<path d="M430.972 155.971C430.16 155.971 429.354 155.643 428.768 155.009C427.739 153.898 427.697 152.196 428.671 151.037C432.887 146.017 443.299 134.269 448.915 133.567C450.555 133.364 452.062 134.527 452.267 136.174C452.473 137.82 451.306 139.321 449.66 139.526C448.792 139.662 447.006 140.936 444.748 142.927C449.405 141.568 454.491 141.012 459.078 142.54C460.652 143.065 461.503 144.766 460.978 146.339C460.454 147.912 458.757 148.764 457.179 148.239C449.074 145.538 436.777 152.498 432.723 155.408C432.195 155.785 431.581 155.971 430.972 155.971Z" fill="#08294A" fill-opacity="0.8"/>
<path d="M352.213 167.367C351.358 167.367 350.508 167.003 349.913 166.298C348.845 165.029 349.008 163.134 350.277 162.066C353.976 158.952 358.908 157.594 363.736 157.138C360.901 156.119 358.772 155.598 357.918 155.79C356.305 156.211 354.675 155.24 354.258 153.636C353.843 152.03 354.809 150.391 356.414 149.975C361.887 148.545 375.906 155.632 381.676 158.742C383.01 159.461 383.599 161.06 383.052 162.473C382.503 163.885 380.99 164.666 379.52 164.299C374.679 163.091 360.681 161.16 354.147 166.662C353.582 167.136 352.895 167.367 352.213 167.367Z" fill="#08294A" fill-opacity="0.8"/>
<path d="M424.098 226.554C422.58 226.554 421.276 225.407 421.114 223.864C420.941 222.215 422.136 220.736 423.786 220.563C431.179 219.785 435.347 212.811 436.994 209.298C431.156 204.571 421.156 192.869 418.964 190.277C417.893 189.01 418.052 187.115 419.319 186.044C420.586 184.971 422.481 185.131 423.552 186.398C429.087 192.944 439.015 203.94 442.093 205.583C443.379 206.268 443.986 207.778 443.536 209.163C443.324 209.812 438.194 225.086 424.415 226.536C424.309 226.548 424.202 226.554 424.098 226.554Z" fill="#08294A" fill-opacity="0.8"/>
<path d="M430.245 267.543C426.913 267.543 423.327 265.371 419.551 261.054C418.459 259.806 418.585 257.908 419.833 256.817C421.082 255.726 422.979 255.85 424.071 257.099C426.869 260.296 429.364 261.924 430.764 261.447C432.669 260.798 435.612 254.939 436.182 245.629C436.283 243.974 437.677 242.716 439.362 242.816C441.019 242.917 442.278 244.34 442.176 245.997C441.989 249.051 440.655 264.42 432.704 267.132C431.901 267.407 431.082 267.543 430.245 267.543Z" fill="#08294A" fill-opacity="0.8"/>
<path d="M407.849 303.018C403.53 303.018 398.607 302.758 393.231 302.043C375.402 299.669 349.024 291.601 324.608 266.636C323.448 265.45 323.469 263.548 324.655 262.389C325.84 261.229 327.743 261.25 328.902 262.436C352.032 286.086 376.936 293.77 393.755 296.052C412.053 298.536 425.054 295.356 425.183 295.324C425.308 295.293 425.439 295.269 425.566 295.254C427.102 295.073 432.134 293.391 445.663 281.698C475.222 256.148 484.965 214.982 469.908 179.262C469.703 178.778 469.501 178.307 469.303 177.853C466.515 171.456 464.867 164.712 464.408 157.811C463.054 137.474 461.205 102.353 461.186 102C461.099 100.343 462.372 98.931 464.029 98.8435C465.695 98.7576 467.099 100.029 467.186 101.686C467.204 102.037 469.05 137.117 470.402 157.412C470.815 163.621 472.298 169.691 474.811 175.453C475.018 175.926 475.228 176.417 475.443 176.926C491.515 215.054 481.126 258.985 449.592 286.243C433.761 299.927 428.349 300.961 426.454 301.198C425.162 301.505 418.26 303.018 407.849 303.018Z" fill="#08294A" fill-opacity="0.8"/>
<path d="M362.381 364.969C342.143 364.969 325.637 357.392 314.116 349.724C296.545 338.028 286.788 323.972 286.382 323.38C285.602 322.243 285.696 320.721 286.612 319.689C309.422 293.946 303.623 243.524 303.562 243.017C303.363 241.371 304.536 239.874 306.183 239.674C307.826 239.47 309.326 240.647 309.526 242.292C309.592 242.836 311.126 255.778 309.694 272.271C307.853 293.49 302.135 310.137 292.693 321.801C295.876 325.902 304.552 336.18 317.617 344.837C339.63 359.423 363.127 362.788 387.454 354.841C388.104 354.458 390.69 352.75 390.868 349.706C391.031 346.89 389.183 340.719 374.964 331.037C373.592 330.103 373.238 328.235 374.171 326.864C375.105 325.492 376.975 325.138 378.344 326.072C391.119 334.77 397.348 342.874 396.858 350.161C396.397 357.018 390.258 360.164 389.997 360.295C389.868 360.36 389.732 360.415 389.595 360.461C379.933 363.647 370.832 364.969 362.381 364.969Z" fill="#08294A" fill-opacity="0.8"/>
<path d="M373.496 344.822C373.281 344.822 373.062 344.799 372.842 344.75C371.223 344.39 370.202 342.786 370.561 341.166L380.468 296.548C380.828 294.93 382.43 293.91 384.052 294.267C385.671 294.627 386.692 296.231 386.333 297.851L376.426 342.469C376.114 343.869 374.872 344.822 373.496 344.822Z" fill="#08294A" fill-opacity="0.8"/>
<path d="M464.558 344.821C463.73 344.821 462.906 344.482 462.313 343.813C455.129 335.731 441.324 332.422 435.722 331.374C434.312 331.109 432.772 331.039 431.139 331.165C412.654 332.579 379.025 322.807 377.603 322.391C376.012 321.924 375.099 320.257 375.565 318.664C376.031 317.073 377.699 316.162 379.291 316.625C379.63 316.724 413.284 326.501 430.681 325.175C432.834 325.011 434.902 325.109 436.826 325.469C444.539 326.912 458.69 330.695 466.803 339.823C467.905 341.062 467.793 342.961 466.553 344.063C465.98 344.572 465.268 344.821 464.558 344.821Z" fill="#08294A" fill-opacity="0.8"/>
<path d="M264.686 475.186C255.322 475.186 244.685 473.95 232.821 471.474C212.751 467.286 196.846 461.091 196.179 460.83C194.645 460.228 193.882 458.503 194.469 456.963L231.102 360.929C231.152 360.801 231.208 360.676 231.273 360.556C242.355 340.315 285.743 319.823 287.585 318.96C289.086 318.257 290.874 318.904 291.578 320.407C292.281 321.909 291.634 323.697 290.132 324.401C289.7 324.602 246.951 344.79 236.638 363.266L201.162 456.268C213.516 460.697 263.795 477.274 290.526 464.281L294.095 439.292C294.329 437.651 295.843 436.502 297.493 436.743C299.135 436.977 300.276 438.499 300.042 440.141L296.253 466.669C296.118 467.612 295.545 468.435 294.706 468.887C286.933 473.085 276.891 475.186 264.686 475.186Z" fill="#08294A" fill-opacity="0.8"/>
<path d="M253.79 571.235C220.751 571.235 197.136 561.046 196.068 560.578C195.217 560.204 194.586 559.457 194.362 558.556C190.455 542.93 205.549 464.874 206.193 461.559C206.51 459.931 208.088 458.866 209.715 459.183C211.343 459.5 212.407 461.076 212.09 462.705C207.924 484.139 197.952 540.983 199.924 555.66C206.022 558.027 230.82 566.721 262.17 565C283.232 563.844 303.105 558.275 321.24 548.447C343.918 536.157 363.969 517.11 380.834 491.838C382.619 488.63 408.735 441.913 424.425 426.225C424.804 425.847 425.278 425.576 425.796 425.441C426.49 425.257 442.971 420.69 442.427 403.813C442.374 402.155 443.674 400.768 445.333 400.715C446.971 400.676 448.377 401.961 448.431 403.62C448.971 420.391 435.84 428.701 428.131 431.025C412.731 446.917 386.295 494.379 386.027 494.863C385.987 494.934 385.945 495.003 385.901 495.071C368.436 521.27 347.595 541.034 323.955 553.81C304.997 564.054 284.233 569.843 262.238 571.013C259.362 571.165 256.543 571.235 253.79 571.235Z" fill="#08294A" fill-opacity="0.8"/>
<path d="M261.986 510.591C259.488 510.591 258.044 510.268 257.837 510.219C256.225 509.83 255.232 508.208 255.62 506.595C256.006 504.991 257.62 503.998 259.216 504.371C259.434 504.419 275.988 507.705 299.981 485.203C305.856 479.693 311.216 475.029 316.37 470.938C336.84 454.699 386.58 414.998 408.873 395.138L419.032 370.364C419.26 369.809 419.647 369.336 420.145 369.004L445.725 351.951C446.219 351.621 446.798 351.446 447.391 351.446H463.191C464.849 351.446 466.194 352.791 466.194 354.45C466.194 356.108 464.849 357.453 463.191 357.453H448.3L424.241 373.492L414.169 398.057C413.996 398.478 413.73 398.854 413.392 399.156C391.239 418.965 340.774 459.244 320.105 475.644C315.081 479.63 309.844 484.189 304.091 489.583C284.426 508.029 269.022 510.591 261.986 510.591Z" fill="#08294A" fill-opacity="0.8"/>
<path d="M268.34 509.927C267.952 509.927 267.557 509.851 267.177 509.691C265.648 509.048 264.931 507.286 265.574 505.758L281.174 468.722C281.818 467.194 283.577 466.475 285.108 467.12C286.636 467.763 287.354 469.525 286.71 471.053L271.11 508.089C270.627 509.238 269.513 509.927 268.34 509.927Z" fill="#08294A" fill-opacity="0.8"/>
<path d="M368.338 666.175C356.869 666.175 345.159 665.327 333.271 663.626C289.229 657.327 258.46 641.754 257.172 641.094C256.051 640.519 255.407 639.306 255.561 638.056L264.224 567.281C264.425 565.635 265.936 564.452 267.569 564.665C269.216 564.866 270.387 566.364 270.186 568.01L261.784 636.651C269.113 640.095 297.24 652.433 334.315 657.706C359.543 661.294 383.924 660.957 406.782 656.707C434.689 651.517 460.414 640.438 483.273 623.765C482.182 616.886 478.554 591.452 478.33 555.867C478.156 528.446 475.122 500.524 469.312 472.879L460.251 429.776C459.911 428.152 460.949 426.561 462.573 426.219C464.187 425.877 465.788 426.916 466.13 428.54L475.19 471.643C481.083 499.682 484.161 528.006 484.337 555.829C484.597 596.983 489.443 624.285 489.493 624.557C489.696 625.679 489.245 626.82 488.33 627.501C464.332 645.354 437.224 657.174 407.761 662.635C395.033 664.995 381.853 666.175 368.338 666.175Z" fill="#08294A" fill-opacity="0.8"/>
<path d="M603.145 584.55C598.719 584.55 593.657 583.685 588.031 581.378C572.704 575.095 557.174 559.622 541.876 535.392C539.783 532.08 538.007 528.604 536.595 525.061C524.323 494.245 506.386 458.815 492.85 451.792C492.767 451.749 492.688 451.703 492.609 451.652L453.721 426.64C453.258 426.342 452.885 425.922 452.645 425.427L441.826 403.171C438.098 395.504 439.908 386.154 446.227 380.432L447.989 378.839C448.715 378.181 449.714 377.918 450.669 378.137C451.623 378.353 452.412 379.021 452.783 379.927L460.367 398.44L471.017 408.059C472.249 409.171 472.345 411.07 471.234 412.3C470.121 413.534 468.221 413.628 466.992 412.517L455.835 402.44C455.5 402.137 455.239 401.765 455.068 401.349L448.906 386.308C445.675 390.263 444.951 395.861 447.227 400.545L457.68 422.043L495.746 446.528C514.074 456.206 534.313 503.094 542.177 522.839C543.451 526.039 545.058 529.185 546.954 532.186C561.574 555.339 576.16 570.021 590.309 575.822C601.306 580.328 609.569 578.383 614.565 575.956C616.799 574.872 618.745 573.204 620.194 571.135C632.811 553.107 636.841 533.734 632.17 513.552C617.786 451.401 526.257 400.145 525.334 399.634C523.883 398.831 523.357 397.004 524.16 395.552C524.964 394.1 526.791 393.575 528.243 394.378C528.479 394.509 552.145 407.68 577.292 428.565C611.278 456.792 631.712 484.93 638.023 512.198C643.093 534.109 638.751 555.097 625.115 574.578C623.081 577.485 620.341 579.829 617.19 581.359C613.72 583.044 608.984 584.55 603.145 584.55Z" fill="#08294A" fill-opacity="0.8"/>
<path d="M607.501 529.566C606.145 529.566 604.914 528.641 604.584 527.265C594.268 484.402 544.066 449.479 541.815 447.935C525.199 438.181 519.265 416.46 519.019 415.539C518.884 415.025 518.885 414.486 519.025 413.974L525.206 391.419L523.41 366.781C514.294 372.59 513.691 380.284 514.167 384.423C514.197 384.685 514.193 384.949 514.155 385.21C512.869 393.845 512.341 404.494 513.604 406.582C514.463 408.001 514.009 409.848 512.588 410.706C511.17 411.565 509.322 411.112 508.464 409.691C505.539 404.857 507.41 389.821 508.156 384.708C506.851 371.683 515.699 364.355 521.13 361.131C522.761 360.161 524.743 360.104 526.426 360.984C528.108 361.861 529.194 363.516 529.332 365.41L531.233 391.496C531.257 391.836 531.223 392.179 531.134 392.508L525.043 414.738C526.198 418.469 532.005 435.264 544.934 442.8C544.99 442.832 545.047 442.867 545.101 442.904C545.655 443.278 558.805 452.21 573.498 466.878C587.146 480.502 604.631 501.795 610.423 525.858C610.811 527.472 609.818 529.094 608.206 529.482C607.97 529.539 607.733 529.566 607.501 529.566Z" fill="#08294A" fill-opacity="0.8"/>
<path d="M525.652 367.109C525.479 367.109 525.304 367.094 525.128 367.063C523.494 366.776 522.403 365.218 522.69 363.584L532.736 306.509C532.992 305.055 532.571 303.594 531.579 302.5C530.586 301.407 529.163 300.854 527.702 300.958L477.17 304.845C474.942 305.016 473.162 306.681 472.842 308.893L466.163 354.881C465.925 356.522 464.414 357.664 462.759 357.422C461.117 357.184 459.98 355.66 460.218 354.018L466.896 308.028C467.626 303.016 471.66 299.245 476.709 298.857L527.242 294.97C530.594 294.715 533.78 295.988 536.027 298.465C538.275 300.943 539.231 304.254 538.652 307.549L528.606 364.625C528.35 366.082 527.082 367.109 525.652 367.109Z" fill="#08294A" fill-opacity="0.8"/>
<path d="M482.268 402.93C481.595 402.93 480.918 402.704 480.357 402.242L465.059 389.61C464.487 389.137 464.11 388.471 464.001 387.737L460.885 366.89L457.432 368.967C453.579 371.285 451.716 375.935 452.9 380.273C453.337 381.873 452.394 383.525 450.794 383.961C449.192 384.403 447.543 383.455 447.106 381.856C445.215 374.936 448.19 367.519 454.336 363.819L461.644 359.424C462.504 358.906 463.566 358.854 464.473 359.281C465.381 359.709 466.015 360.561 466.163 361.553L469.773 385.709L484.184 397.608C485.462 398.665 485.643 400.558 484.588 401.837C483.992 402.557 483.133 402.93 482.268 402.93Z" fill="#08294A" fill-opacity="0.8"/>
<path d="M508.55 400.009C502.398 400.009 496.075 395.989 495.313 395.489C495.095 395.346 494.897 395.175 494.723 394.98L480.032 378.558C479.642 378.122 479.388 377.581 479.3 377.003L475.439 351.37C475.233 350.001 474.23 349.426 473.807 349.242C473.384 349.058 472.28 348.714 471.136 349.495L470.207 350.132C467.694 351.851 466.195 354.693 466.195 357.735V361.998C466.195 363.657 464.85 365.002 463.191 365.002C461.533 365.002 460.188 363.657 460.188 361.998V357.735C460.188 352.709 462.665 348.013 466.814 345.175L467.744 344.538C470.257 342.82 473.42 342.52 476.206 343.735C478.994 344.948 480.927 347.468 481.379 350.474L485.107 375.221L498.921 390.664C500.93 391.901 505.925 394.432 509.477 393.941C511.107 393.72 512.636 394.866 512.859 396.51C513.084 398.154 511.933 399.668 510.29 399.892C509.716 399.973 509.133 400.009 508.55 400.009Z" fill="#08294A" fill-opacity="0.8"/>
<path d="M356.311 703.055C332.567 703.056 312.249 700.135 296.338 696.593C259.561 688.408 238.284 675.569 237.395 675.026C236.309 674.363 235.759 673.087 236.022 671.842L244.233 632.998C244.419 632.121 244.986 631.372 245.781 630.957C246.578 630.541 247.515 630.505 248.34 630.852L259.709 635.654C261.236 636.3 261.952 638.062 261.307 639.59C260.661 641.119 258.9 641.834 257.371 641.188L249.356 637.803L242.352 670.937C248.226 674.158 267.997 684.164 297.908 690.789C330.993 698.116 383.624 702.689 446.486 682.862C446.908 682.735 485.146 670.915 506.394 646.359L495.765 621.423L488.438 627.417C487.154 628.467 485.262 628.28 484.211 626.994C483.161 625.71 483.35 623.818 484.634 622.768L495.057 614.241C495.789 613.643 496.759 613.423 497.676 613.649C498.593 613.875 499.351 614.519 499.722 615.388L512.644 645.705C513.084 646.735 512.912 647.925 512.201 648.79C490.05 675.711 449.957 688.087 448.26 688.601C414.222 699.338 383.089 703.054 356.311 703.055Z" fill="#08294A" fill-opacity="0.8"/>
<path d="M275.576 690.919C275.368 690.919 275.157 690.897 274.946 690.852C273.324 690.506 272.29 688.91 272.636 687.288L281.006 648.065C281.351 646.442 282.951 645.41 284.569 645.755C286.192 646.101 287.226 647.697 286.879 649.319L278.51 688.542C278.209 689.952 276.963 690.919 275.576 690.919Z" fill="#08294A" fill-opacity="0.8"/>
<path d="M293.559 695.877C293.38 695.877 293.197 695.86 293.014 695.826C291.383 695.527 290.302 693.962 290.601 692.331L297.763 653.27C298.062 651.638 299.626 650.556 301.258 650.857C302.889 651.156 303.97 652.721 303.671 654.352L296.509 693.413C296.244 694.863 294.981 695.877 293.559 695.877Z" fill="#08294A" fill-opacity="0.8"/>
<path d="M471.074 676.347C469.713 676.347 468.48 675.416 468.153 674.034L460.268 640.692C459.887 639.077 460.886 637.459 462.5 637.077C464.113 636.701 465.733 637.695 466.114 639.309L474 672.652C474.381 674.266 473.382 675.884 471.768 676.266C471.536 676.32 471.303 676.347 471.074 676.347Z" fill="#08294A" fill-opacity="0.8"/>
<path d="M484.667 671.308C483.336 671.308 482.12 670.417 481.765 669.07L472.412 633.612C471.989 632.008 472.946 630.365 474.55 629.942C476.155 629.518 477.796 630.476 478.219 632.08L487.572 667.538C487.995 669.142 487.038 670.785 485.434 671.207C485.179 671.275 484.92 671.308 484.667 671.308Z" fill="#08294A" fill-opacity="0.8"/>
<path d="M361.687 703.069C360.028 703.069 358.684 701.724 358.684 700.065V663.173C358.684 661.515 360.028 660.17 361.687 660.17C363.346 660.17 364.69 661.515 364.69 663.173V700.065C364.69 701.723 363.345 703.069 361.687 703.069Z" fill="#08294A" fill-opacity="0.8"/>
<path d="M404.581 699.061C403.061 699.061 401.758 697.912 401.596 696.367L397.927 661.054C397.756 659.405 398.954 657.928 400.604 657.756C402.254 657.592 403.73 658.785 403.902 660.434L407.571 695.746C407.742 697.396 406.544 698.873 404.894 699.044C404.789 699.055 404.684 699.061 404.581 699.061Z" fill="#08294A" fill-opacity="0.8"/>
<path d="M378.447 684.623H361.687C360.028 684.623 358.684 683.278 358.684 681.62C358.684 679.961 360.028 678.616 361.687 678.616H378.447C380.106 678.616 381.451 679.961 381.451 681.62C381.451 683.278 380.106 684.623 378.447 684.623Z" fill="#08294A" fill-opacity="0.8"/>
<path d="M223.805 779.682C223.579 779.682 223.349 779.656 223.119 779.602C221.503 779.225 220.5 777.609 220.878 775.994L244.248 676.106C244.626 674.49 246.242 673.488 247.856 673.866C249.472 674.243 250.475 675.859 250.097 677.474L226.727 777.362C226.403 778.747 225.169 779.682 223.805 779.682Z" fill="#08294A" fill-opacity="0.8"/>
<path d="M509.879 779.682C508.351 779.682 507.043 778.52 506.894 776.968L495.442 658.631C495.281 656.98 496.491 655.511 498.141 655.353C499.803 655.189 501.261 656.402 501.419 658.052L512.872 776.389C513.032 778.04 511.822 779.508 510.172 779.667C510.074 779.677 509.976 779.682 509.879 779.682Z" fill="#08294A" fill-opacity="0.8"/>
<path d="M391.371 769.26H361.687C360.028 769.26 358.684 767.915 358.684 766.256C358.684 764.597 360.028 763.253 361.687 763.253H388.367V697.971C388.367 696.312 389.712 694.967 391.371 694.967C393.029 694.967 394.374 696.312 394.374 697.971V766.256C394.374 767.915 393.028 769.26 391.371 769.26Z" fill="#08294A" fill-opacity="0.8"/>
<path d="M361.687 786.313C360.028 786.313 358.684 784.968 358.684 783.31V726.733C358.684 725.075 360.028 723.73 361.687 723.73C363.346 723.73 364.69 725.075 364.69 726.733V783.31C364.69 784.968 363.345 786.313 361.687 786.313Z" fill="#08294A" fill-opacity="0.8"/>
<path d="M227.877 762.252C226.314 762.252 224.997 761.042 224.885 759.459C224.768 757.804 226.015 756.369 227.67 756.253C271.014 753.205 290.602 708.68 290.795 708.23C291.449 706.707 293.212 705.997 294.738 706.652C296.261 707.304 296.97 709.066 296.319 710.592C296.108 711.085 291.024 722.836 280.128 735.117C265.597 751.492 247.605 760.873 228.092 762.244C228.02 762.249 227.948 762.252 227.877 762.252Z" fill="#08294A" fill-opacity="0.8"/>
<path d="M506.865 745.431C506.793 745.431 506.722 745.429 506.651 745.423C470.959 742.913 455.555 707.78 454.916 706.286C454.265 704.76 454.973 702.996 456.499 702.344C458.024 701.691 459.788 702.4 460.44 703.924C460.616 704.332 475.127 737.185 507.072 739.432C508.728 739.549 509.975 740.984 509.858 742.638C509.746 744.221 508.428 745.431 506.865 745.431Z" fill="#08294A" fill-opacity="0.8"/>
<path d="M374.815 214.866C379.556 214.866 383.4 208.927 383.4 201.601C383.4 194.276 379.556 188.337 374.815 188.337C370.074 188.337 366.23 194.276 366.23 201.601C366.23 208.927 370.074 214.866 374.815 214.866Z" fill="#08294A" fill-opacity="0.8"/>
<path d="M456.497 201.601C461.238 201.601 465.082 195.663 465.082 188.337C465.082 181.012 461.238 175.073 456.497 175.073C451.756 175.073 447.912 181.012 447.912 188.337C447.912 195.663 451.756 201.601 456.497 201.601Z" fill="#08294A" fill-opacity="0.8"/>
<path d="M632.822 347.154L578.125 327.629L558.599 382.326L613.296 401.852L632.822 347.154Z" fill="#FFFEFE" fill-opacity="0.1"/>
<path d="M456.648 514.658L428.978 485.249L399.568 512.918L427.238 542.328L456.648 514.658Z" fill="#FFFEFE" fill-opacity="0.1"/>
<path d="M575.777 176.213L548.12 172.918L544.825 200.576L572.482 203.871L575.777 176.213Z" fill="#FFFEFE" fill-opacity="0.1"/>
<path d="M442.892 93.4108C439.723 93.4108 436.676 91.6491 435.184 88.613C433.093 84.3593 434.847 79.2174 439.1 77.1262C456.204 68.7199 448.308 39.0965 448.227 38.7979C446.976 34.2352 449.651 29.5113 454.212 28.2489C458.772 26.9892 463.49 29.6451 464.763 34.2026C464.882 34.6291 467.675 44.7901 467.203 56.6186C466.514 73.848 459.414 86.2652 446.671 92.5287C445.453 93.1276 444.162 93.4108 442.892 93.4108Z" fill="white"/>
<path d="M141.126 251.236C139.143 251.236 137.151 250.553 135.531 249.158C67.7478 190.798 40.2982 120.966 39.1629 118.021C37.4578 113.6 39.6597 108.634 44.0817 106.928C48.501 105.223 53.4662 107.422 55.173 111.841H55.1738C55.4381 112.523 82.3498 180.724 146.728 236.152C150.32 239.245 150.724 244.662 147.633 248.254C145.937 250.225 143.538 251.236 141.126 251.236Z" fill="white"/>
<path d="M235.853 319.152L235.123 302.005C235.119 302.005 235.054 302.005 234.934 302.016C235.728 301.945 254.44 299.85 259.853 263.28C260.547 258.592 264.918 255.36 269.598 256.047C274.286 256.741 277.524 261.105 276.831 265.792C269.232 317.147 237.212 319.095 235.853 319.152Z" fill="white"/>
<path d="M549.142 296.139C544.622 296.139 540.838 292.607 540.581 288.039C539.49 268.576 511.841 254.516 501.279 250.741C496.821 249.148 494.489 244.242 496.077 239.782C497.664 235.321 502.56 232.985 507.021 234.568C507.506 234.74 519.04 238.871 530.865 246.937C547.598 258.352 556.883 272.232 557.716 287.077C557.982 291.81 554.361 295.86 549.629 296.126C549.467 296.135 549.304 296.139 549.142 296.139Z" fill="white"/>
<path d="M601.918 389.648C600.774 389.648 599.612 389.417 598.497 388.932C594.153 387.041 592.163 381.985 594.054 377.639L605.639 351.025C607.531 346.68 612.589 344.693 616.932 346.581C621.276 348.473 623.266 353.529 621.375 357.874L609.79 384.489C608.384 387.719 605.229 389.648 601.918 389.648Z" fill="white"/>
<path d="M321.074 763.605C320.576 763.605 320.071 763.562 319.564 763.472C253.173 751.694 217.935 694.786 216.467 692.37C214.008 688.319 215.297 683.041 219.348 680.581C223.397 678.125 228.666 679.409 231.13 683.451C231.451 683.977 263.973 736.18 322.562 746.574C327.228 747.402 330.339 751.856 329.512 756.523C328.774 760.68 325.156 763.605 321.074 763.605Z" fill="white"/>
<path d="M174.586 69.2363C173.19 69.2363 171.776 68.8956 170.467 68.1756C166.324 65.8965 164.799 60.7099 167.063 56.56C167.593 55.5903 180.28 32.7676 203.235 27.7218C216.683 24.769 230.42 28.4066 244.075 38.5402C247.882 41.3643 248.676 46.7396 245.852 50.5445C243.027 54.3512 237.653 55.1459 233.848 52.3218C224.389 45.3031 215.362 42.6575 207.005 44.4647C191.721 47.7702 182.209 64.6367 182.115 64.8066C180.546 67.6341 177.611 69.2363 174.586 69.2363Z" fill="white"/>
<path d="M148.015 416.985C146.641 416.985 145.269 416.91 143.897 416.759C121.831 414.327 109.68 392.885 109.174 391.973C106.872 387.83 108.365 382.605 112.508 380.304C116.641 378.008 121.849 379.487 124.16 383.609C124.318 383.883 132.703 398.318 145.864 399.709C155.383 400.708 165.915 394.791 177.193 382.104C180.342 378.563 185.764 378.244 189.307 381.391C192.849 384.54 193.168 389.964 190.02 393.506C176.156 409.103 162.044 416.985 148.015 416.985Z" fill="white"/>
</svg>
