<svg width="569" height="810" viewBox="0 0 569 810" fill="none" xmlns="http://www.w3.org/2000/svg">
<path d="M253.97 367.771L201.699 370.918L207.771 471.77L260.042 468.623L253.97 367.771Z" fill="#FFFEFE" fill-opacity="0.1"/>
<path d="M288.908 328.579C358.726 328.579 415.325 271.981 415.325 202.163C415.325 132.345 358.726 75.7461 288.908 75.7461C219.09 75.7461 162.491 132.345 162.491 202.163C162.491 271.981 219.09 328.579 288.908 328.579Z" fill="#FFFEFE" fill-opacity="0.1"/>
<path d="M355.369 453.357C384.427 453.357 407.983 429.801 407.983 400.744C407.983 371.686 384.427 348.13 355.369 348.13C326.311 348.13 302.755 371.686 302.755 400.744C302.755 429.801 326.311 453.357 355.369 453.357Z" fill="#FFFEFE" fill-opacity="0.1"/>
<path d="M52.6136 488.533C81.6714 488.533 105.227 464.977 105.227 435.919C105.227 406.862 81.6714 383.306 52.6136 383.306C23.5559 383.306 0 406.862 0 435.919C0 464.977 23.5559 488.533 52.6136 488.533Z" fill="#FFFEFE" fill-opacity="0.1"/>
<path d="M75.1011 261.124C91.7394 261.124 105.227 247.636 105.227 230.998C105.227 214.36 91.7394 200.872 75.1011 200.872C58.4629 200.872 44.9749 214.36 44.9749 230.998C44.9749 247.636 58.4629 261.124 75.1011 261.124Z" fill="#FFFEFE" fill-opacity="0.05"/>
<path d="M530.012 176.74C546.65 176.74 560.138 163.252 560.138 146.614C560.138 129.976 546.65 116.488 530.012 116.488C513.373 116.488 499.885 129.976 499.885 146.614C499.885 163.252 513.373 176.74 530.012 176.74Z" fill="#FFFEFE" fill-opacity="0.1"/>
<path d="M519.706 354.756C536.344 354.756 549.832 341.268 549.832 324.629C549.832 307.991 536.344 294.503 519.706 294.503C503.068 294.503 489.58 307.991 489.58 324.629C489.58 341.268 503.068 354.756 519.706 354.756Z" fill="#FFFEFE" fill-opacity="0.1"/>
<path d="M159.541 369.193C170.187 369.193 178.817 360.563 178.817 349.918C178.817 339.272 170.187 330.642 159.541 330.642C148.896 330.642 140.266 339.272 140.266 349.918C140.266 360.563 148.896 369.193 159.541 369.193Z" fill="#FFFEFE" fill-opacity="0.1"/>
<path d="M415.325 38.551C425.97 38.551 434.6 29.9212 434.6 19.2756C434.6 8.63 425.97 0 415.325 0C404.679 0 396.049 8.63 396.049 19.2756C396.049 29.9212 404.679 38.551 415.325 38.551Z" fill="#FFFEFE" fill-opacity="0.05"/>
<path d="M595.351 746.897C597.918 655.555 483.548 578.234 339.897 574.196C196.246 570.158 77.7119 640.931 75.1441 732.273C72.5764 823.615 186.947 900.936 330.598 904.974C474.249 909.012 592.783 838.239 595.351 746.897Z" fill="#FFFEFE" fill-opacity="0.1"/>
<path d="M280.441 341.575C235.04 337.567 232.41 266.518 233.046 239.669C237.024 249.012 242.995 259.745 251.763 271.845C251.763 271.845 264.802 295.958 294.77 299.213C294.77 299.213 303.762 300.942 316.635 299.526C320.504 327.452 302.012 343.481 280.441 341.575Z" fill="#08294A" fill-opacity="0.8"/>
<path d="M230.915 159.119C230.915 159.119 206.153 148.042 208.108 115.462C208.108 115.462 208.435 58.1195 252.581 39.2224C252.581 39.2224 342.341 -3.13238 403.593 66.5899C403.593 66.5899 448.555 121.978 462.238 224.281C462.238 224.281 469.537 307.906 406.897 339.162C390.488 347.35 371.053 335.909 369.938 317.604C368.121 287.765 367.239 242.9 374.761 209.874C378.142 195.032 371.71 179.713 358.709 171.794C331.545 155.247 290.881 124.446 284.673 85.4871C284.673 85.4871 269.944 135.295 225.633 147.024" fill="#08294A" fill-opacity="0.8"/>
<path d="M326.053 173.516C325.063 173.516 324.085 173.076 323.43 172.234C311.916 157.432 297.421 168.431 296.81 168.907C295.364 170.034 293.278 169.772 292.152 168.325C291.027 166.879 291.287 164.792 292.735 163.668C292.939 163.508 297.83 159.75 304.628 158.39C311.121 157.09 320.56 157.733 328.669 168.16C329.795 169.606 329.534 171.692 328.087 172.817C327.481 173.288 326.764 173.516 326.053 173.516Z" fill="#08294A" fill-opacity="0.8"/>
<path d="M255.027 158.529C253.998 158.529 252.984 158.051 252.335 157.156C251.801 156.433 249.987 154.549 248.003 154.477C246.522 154.408 244.901 155.396 243.208 157.371C242.015 158.76 239.919 158.922 238.528 157.73C237.136 156.537 236.974 154.441 238.168 153.049C241.265 149.436 244.674 147.664 248.323 147.847C253.863 148.091 257.346 152.75 257.726 153.281C258.791 154.771 258.445 156.845 256.953 157.91C256.368 158.327 255.694 158.529 255.027 158.529Z" fill="#08294A" fill-opacity="0.8"/>
<path d="M269.359 226.85C258.277 226.85 252.39 216.813 252.146 216.386C251.565 215.375 251.558 214.132 252.127 213.115L265.159 189.801C266.054 188.201 268.074 187.627 269.676 188.524C271.276 189.417 271.848 191.44 270.954 193.041L258.939 214.532C260.608 216.617 264.23 220.212 269.359 220.212C271.193 220.212 272.679 221.698 272.679 223.531C272.679 225.364 271.193 226.85 269.359 226.85Z" fill="#08294A" fill-opacity="0.8"/>
<path d="M279.52 267.856C271.492 267.856 263.816 261.488 262.88 260.683C261.488 259.489 261.329 257.394 262.523 256.003C263.716 254.612 265.809 254.453 267.199 255.643C269.369 257.493 276.072 262.065 280.984 261.078C283.048 260.659 284.669 259.219 285.939 256.679C286.758 255.04 288.749 254.375 290.392 255.195C292.032 256.016 292.697 258.009 291.876 259.649C289.117 265.168 285.138 267.012 282.285 267.587C281.366 267.774 280.441 267.856 279.52 267.856Z" fill="#08294A" fill-opacity="0.8"/>
<path d="M306.499 303.405C299.687 303.405 295.168 302.658 294.287 302.499C264.177 299.17 250.426 276.236 248.957 273.631C240.793 262.343 234.412 251.355 229.991 240.971C222.055 222.377 221.677 208.921 222.758 200.908C223.32 196.746 225.09 192.638 228.022 188.699C231.527 183.988 230.517 174.658 229.779 171.15C224.594 157.465 224.968 120.89 224.986 119.329C225.008 117.496 226.493 116.059 228.345 116.05C230.178 116.071 231.646 117.574 231.624 119.408C231.62 119.78 231.241 156.705 236.057 168.982C236.119 169.14 236.169 169.303 236.206 169.469C236.343 170.077 239.465 184.44 233.348 192.661C231.096 195.687 229.747 198.761 229.338 201.795C228.368 208.981 228.754 221.16 236.098 238.367C240.347 248.347 246.521 258.955 254.451 269.898C254.536 270.016 254.613 270.139 254.682 270.267C254.803 270.487 267.346 292.897 295.127 295.914C295.217 295.925 295.306 295.937 295.396 295.955C295.477 295.97 304.115 297.565 316.271 296.228C329.998 294.707 342.532 290.206 353.524 282.851C355.046 281.831 357.108 282.24 358.127 283.764C359.146 285.286 358.739 287.347 357.215 288.367C345.329 296.323 331.798 301.188 316.998 302.826C313.116 303.253 309.573 303.405 306.499 303.405Z" fill="#08294A" fill-opacity="0.8"/>
<path d="M162.752 613.115C162.703 613.115 162.655 613.115 162.605 613.114C141.55 613.009 125.619 590.008 124.583 588.477C100.637 555.134 101.929 523.764 107.234 503.317C112.592 482.658 122.795 469.017 124.501 466.834C130.357 455.566 153.334 433.503 192.808 401.24C194.228 400.08 196.319 400.289 197.479 401.709C198.639 403.129 198.428 405.219 197.009 406.379C148.283 446.203 133.825 463.023 130.275 470.122C130.167 470.338 130.036 470.541 129.884 470.729C129.777 470.861 118.925 484.453 113.592 505.242C106.496 532.907 112.017 559.621 130.001 584.644C130.022 584.672 130.042 584.702 130.062 584.732C130.206 584.946 144.866 606.405 162.658 606.479C162.687 606.479 162.718 606.479 162.748 606.479C171.364 606.479 179.567 601.367 187.167 591.277C180.341 585.802 164.888 568.96 169.04 530.84C158.291 532.257 141.668 529.2 133.374 509.686C132.657 507.999 133.444 506.051 135.131 505.334C136.82 504.616 138.767 505.403 139.483 507.09C149.278 530.136 171.023 523.744 171.943 523.461C173.031 523.128 174.214 523.373 175.079 524.112C175.943 524.852 176.367 525.984 176.205 527.109C169.495 573.473 192.453 587.039 193.433 587.594C194.243 588.051 194.832 588.833 195.041 589.74C195.25 590.645 195.08 591.603 194.553 592.369C185.114 606.133 174.414 613.114 162.752 613.115Z" fill="#08294A" fill-opacity="0.8"/>
<path d="M215.929 390.225C214.951 390.225 213.981 389.794 213.326 388.967C212.187 387.531 212.429 385.443 213.865 384.304C251.192 354.714 286.591 328.729 286.944 328.47C288.423 327.386 290.5 327.705 291.583 329.184C292.667 330.663 292.348 332.739 290.87 333.823C290.517 334.081 255.214 359.997 217.988 389.508C217.379 389.99 216.652 390.225 215.929 390.225Z" fill="#08294A" fill-opacity="0.8"/>
<path d="M171.784 541.679C169.951 541.679 168.465 540.193 168.465 538.36C168.465 536.533 169.94 535.052 171.764 535.041C172.411 535.029 185.92 534.555 194.798 516.111V492.611L181.409 475.927C180.963 475.371 180.708 474.685 180.681 473.973L180.029 456.379C180.005 455.725 180.174 455.079 180.515 454.522L194.116 432.321C195.073 430.758 197.119 430.267 198.679 431.224C200.242 432.182 200.733 434.225 199.776 435.788L186.698 457.134L187.272 472.629L200.703 489.366C201.176 489.955 201.433 490.688 201.433 491.443V516.856C201.433 517.339 201.328 517.816 201.124 518.254C190.366 541.411 172.538 541.679 171.784 541.679Z" fill="#08294A" fill-opacity="0.8"/>
<path d="M192.306 472.037C190.473 472.037 188.987 470.551 188.987 468.718V460.165C188.987 459.358 189.281 458.579 189.814 457.973L202.162 443.939C203.517 442.063 205.59 440.807 207.886 440.479C210.255 440.14 212.678 440.818 214.528 442.339C217.795 445.022 218.603 449.773 216.408 453.387L207.686 467.752C206.735 469.319 204.696 469.817 203.127 468.867C201.56 467.915 201.061 465.874 202.013 464.307L210.734 449.941C211.226 449.132 211.045 448.068 210.313 447.467C209.745 447.001 209.137 447.006 208.824 447.051C208.512 447.095 207.927 447.261 207.513 447.867C207.436 447.979 207.353 448.087 207.264 448.189L195.625 461.417V468.717C195.625 470.551 194.14 472.037 192.306 472.037Z" fill="#08294A" fill-opacity="0.8"/>
<path d="M187.079 590.064C185.791 590.064 184.566 589.31 184.027 588.052C183.304 586.368 184.085 584.416 185.77 583.693C192.529 580.795 201.013 563.407 204.824 553.013C208.164 540.091 217.33 529.448 217.72 529C218.923 527.615 221.019 527.469 222.403 528.674C223.785 529.876 223.931 531.971 222.731 533.355C222.645 533.453 214.122 543.381 211.214 554.816C211.187 554.924 211.155 555.031 211.116 555.136C211.008 555.432 208.431 562.463 204.483 570.173C198.867 581.139 193.601 587.559 188.384 589.794C187.959 589.977 187.515 590.064 187.079 590.064Z" fill="#08294A" fill-opacity="0.8"/>
<path d="M198.257 456.872C196.526 456.872 195.067 455.529 194.949 453.775L191.076 396.293C190.856 393.024 192.013 389.775 194.251 387.383C196.489 384.989 199.65 383.616 202.927 383.616H231.866C238.225 383.616 243.436 388.592 243.73 394.944L246.217 448.522C246.302 450.353 244.886 451.905 243.055 451.991C241.231 452.083 239.671 450.66 239.586 448.829L237.1 395.251C236.97 392.449 234.671 390.253 231.866 390.253H202.927C201.461 390.253 200.102 390.843 199.099 391.915C198.097 392.986 197.6 394.383 197.699 395.846L201.572 453.329C201.695 455.158 200.312 456.741 198.483 456.864C198.408 456.869 198.332 456.872 198.257 456.872Z" fill="#08294A" fill-opacity="0.8"/>
<path d="M276.975 469.35C276.744 469.35 276.51 469.326 276.278 469.276C274.883 468.976 273.836 467.818 273.677 466.401C271.387 446.018 275.037 415.761 284.526 376.469C291.559 347.346 299.365 323.816 299.443 323.581C300.022 321.842 301.903 320.904 303.641 321.481C305.38 322.059 306.32 323.939 305.742 325.678C305.454 326.541 278.979 406.686 279.673 455.564C285.295 446.996 294.88 433.146 307.025 418.54C333.761 386.385 359.54 366.006 383.647 357.971C383.749 357.937 383.854 357.908 383.959 357.884L435.437 346.155C437.229 345.748 439.004 346.868 439.409 348.654C439.817 350.442 438.698 352.221 436.91 352.627L385.593 364.319C330.799 382.708 280.333 466.875 279.829 467.724C279.223 468.745 278.13 469.35 276.975 469.35Z" fill="#08294A" fill-opacity="0.8"/>
<path d="M418.503 667.108C408.284 667.108 397.992 665.664 387.702 662.753C387.481 662.691 387.266 662.606 387.062 662.497C386.276 662.085 307.997 620.793 267.09 582.485C266.307 581.752 265.927 580.684 266.07 579.62C266.267 578.152 271.196 543.589 296.329 535.21C297.229 534.911 298.214 535.011 299.035 535.482C299.573 535.793 353.101 566.174 388.21 549.178C389.625 548.158 399.14 541.04 406.036 529.453C415.791 513.063 415.973 495.754 406.573 478.01C405.715 476.389 406.332 474.38 407.952 473.523C409.572 472.667 411.581 473.282 412.438 474.902C425.643 499.832 419.277 520.29 411.612 533.062C403.414 546.721 392.254 554.458 391.783 554.781C391.651 554.871 391.514 554.951 391.37 555.022C375.184 562.974 354.111 563.039 328.736 555.214C313.229 550.432 301.065 544.158 297.087 541.995C279.767 548.836 274.163 572.378 272.932 578.851C312.226 615.008 384.528 653.642 389.843 656.459C410.628 662.269 431.317 661.831 451.342 655.158C467.536 649.761 483.37 640.291 498.404 627.015C523.243 605.08 537.65 579.905 538.757 577.935C554.631 541.466 542.369 500.999 529.273 473.459C515.51 444.515 497.96 423.355 496.33 421.417C483.071 409.245 469.847 394.886 457.027 378.736C455.887 377.3 456.127 375.213 457.563 374.073C458.998 372.933 461.085 373.172 462.226 374.609C474.88 390.549 487.916 404.698 500.97 416.666C501.068 416.756 501.16 416.85 501.246 416.951C502.022 417.856 520.437 439.472 535.201 470.467C554.917 511.859 558.228 549.992 544.776 580.741C544.736 580.831 544.692 580.92 544.644 581.007C544.034 582.119 529.398 608.5 502.798 631.991C476.466 655.246 447.781 667.107 418.503 667.108Z" fill="#08294A" fill-opacity="0.8"/>
<path d="M443.473 358.363C442.429 358.363 441.401 357.872 440.756 356.954C426.602 336.834 418.355 321.809 418.273 321.66C417.394 320.052 417.985 318.036 419.594 317.156C421.203 316.277 423.219 316.869 424.099 318.477C424.178 318.623 432.264 333.345 446.185 353.135C447.239 354.634 446.879 356.706 445.38 357.759C444.798 358.167 444.133 358.363 443.473 358.363Z" fill="#08294A" fill-opacity="0.8"/>
<path d="M270.98 575.836C270.338 575.836 269.689 575.651 269.119 575.264L228.519 547.704C226.738 546.689 214.598 539.045 215.86 520.083C215.639 515.525 215.266 496.675 223.633 490.363L216.637 469.187C215.892 466.936 216.154 464.472 217.354 462.428C218.935 459.735 221.839 458.128 224.976 458.219C228.098 458.316 230.913 460.107 232.324 462.894L239.088 476.262C239.916 477.898 239.261 479.894 237.626 480.722C235.989 481.55 233.994 480.895 233.165 479.259L226.401 465.891C225.943 464.986 225.108 464.864 224.77 464.854C224.435 464.857 223.592 464.912 223.08 465.788C222.845 466.186 222.795 466.666 222.94 467.106L230.808 490.917C231.085 491.758 231.015 492.675 230.613 493.465C230.211 494.255 229.509 494.851 228.665 495.12C223.674 496.714 222.036 510.875 222.499 519.943C222.506 520.079 222.505 520.216 222.496 520.351C221.374 536.054 231.402 541.717 231.83 541.95C231.924 542.001 232.037 542.07 232.126 542.129L272.846 569.771C274.363 570.8 274.758 572.864 273.728 574.381C273.087 575.327 272.043 575.836 270.98 575.836Z" fill="#08294A" fill-opacity="0.8"/>
<path d="M290.887 544.756C290.431 544.756 289.966 544.661 289.524 544.461C288.515 544.006 264.726 533.208 255.284 523.764C255.197 523.678 255.116 523.586 255.039 523.491C254.679 523.04 246.244 512.312 249.187 499.805C249.268 499.458 249.406 499.125 249.594 498.821L262.783 477.467V459.93L241.902 430.822C240.833 429.333 241.174 427.259 242.664 426.191C244.154 425.122 246.226 425.463 247.296 426.953L268.799 456.928C269.204 457.492 269.421 458.168 269.421 458.862V478.41C269.421 479.025 269.249 479.629 268.926 480.154L255.539 501.828C253.821 510.327 259.318 518.127 260.13 519.221C268.845 527.788 292.02 538.304 292.255 538.409C293.926 539.164 294.668 541.13 293.914 542.801C293.359 544.029 292.152 544.756 290.887 544.756Z" fill="#08294A" fill-opacity="0.8"/>
<path d="M230.188 469.35C228.612 469.35 227.214 468.224 226.925 466.618L222.625 442.734C222.16 440.141 222.887 437.518 224.622 435.536C226.397 433.511 228.952 432.463 231.643 432.616C234.33 432.788 236.734 434.167 238.238 436.401L253.867 459.614C254.891 461.135 254.488 463.198 252.967 464.221C251.445 465.243 249.383 464.841 248.36 463.322L232.732 440.108C232.26 439.407 231.583 439.264 231.222 439.241C230.862 439.215 230.171 439.274 229.615 439.909C229.219 440.363 229.051 440.963 229.158 441.558L233.458 465.441C233.782 467.245 232.584 468.972 230.779 469.295C230.581 469.333 230.383 469.35 230.188 469.35Z" fill="#08294A" fill-opacity="0.8"/>
<path d="M342.883 558.766C341.306 558.766 339.907 557.638 339.619 556.032C336.004 535.864 341.686 504.426 356.509 462.591C367.464 431.672 379.627 406.204 379.749 405.95C389.656 384.483 407.569 367.303 431.531 356.311C449.551 348.045 464.471 346.172 465.098 346.096C465.933 345.997 466.776 346.215 467.455 346.71C486.218 360.422 475.049 390.808 474.564 392.094C473.917 393.81 472.007 394.679 470.288 394.031C468.573 393.385 467.706 391.472 468.351 389.758C468.45 389.496 477.754 364.094 464.573 352.886C455.835 354.334 406.23 364.412 385.755 408.775C385.256 409.817 337.969 509.213 346.154 554.859C346.478 556.664 345.277 558.389 343.473 558.712C343.274 558.749 343.077 558.766 342.883 558.766Z" fill="#08294A" fill-opacity="0.8"/>
<path d="M476.062 838.604C423.193 838.607 382.551 816.813 366.752 806.857C359.614 802.359 354.059 795.629 351.111 787.908C343.007 766.675 337.721 733.623 335.399 689.67C333.678 657.057 334.324 630.261 334.331 629.994C334.376 628.19 335.853 626.758 337.647 626.758C337.675 626.758 337.705 626.758 337.732 626.759C339.565 626.806 341.013 628.329 340.967 630.161C340.94 631.216 338.526 736.318 357.312 785.541C359.75 791.928 364.361 797.504 370.292 801.242C385.578 810.875 424.917 831.962 476.084 831.964C480.226 831.964 484.437 831.826 488.727 831.533C489.123 831.513 522.684 829.585 538.44 811.492C544.473 804.563 547.146 796.01 546.385 786.065L489.443 637.392C488.788 635.679 489.644 633.761 491.356 633.104C493.07 632.451 494.986 633.305 495.643 635.017L552.755 784.135C552.865 784.424 552.935 784.727 552.963 785.036C554.004 797.048 550.797 807.421 543.431 815.87C525.803 836.09 490.613 838.085 489.122 838.159C484.696 838.462 480.334 838.604 476.062 838.604Z" fill="#08294A" fill-opacity="0.8"/>
<path d="M474.39 766.047C470.927 766.047 467.434 765.351 464.12 763.921C438.493 752.86 403.99 718.103 402.534 716.628C368.298 683.05 362.554 648.761 362.326 647.318C362.04 645.507 363.276 643.807 365.087 643.522C366.906 643.231 368.594 644.47 368.882 646.278C368.896 646.362 370.283 654.755 375.691 666.995C380.671 678.271 390.184 695.218 407.22 711.926C407.604 712.315 442.312 747.277 466.751 757.825C473.846 760.887 482.051 759.425 487.651 754.099C498.193 744.075 510.876 725.533 511.435 694.137C511.466 692.325 512.947 690.877 514.752 690.877C514.772 690.877 514.792 690.877 514.812 690.878C516.645 690.91 518.104 692.423 518.071 694.256C517.442 729.724 501.608 749.988 492.226 758.91C487.31 763.585 480.902 766.047 474.39 766.047Z" fill="#08294A" fill-opacity="0.8"/>
<path d="M206.153 686.338C204.814 686.338 203.553 685.522 203.049 684.195C188.72 646.419 183.977 597.294 183.93 596.803C183.759 594.978 185.099 593.36 186.924 593.188C188.76 593.014 190.367 594.357 190.539 596.181C190.585 596.664 195.249 644.917 209.255 681.841C209.906 683.555 209.043 685.471 207.329 686.121C206.943 686.268 206.545 686.338 206.153 686.338Z" fill="#08294A" fill-opacity="0.8"/>
<path d="M338.212 879.972C328.264 879.972 318.309 879.505 308.35 878.569C274.072 875.349 239.749 866.599 206.334 852.565C149.454 828.676 114.351 797.22 114.003 796.905C113.131 796.117 112.743 794.926 112.979 793.774C122.124 749.352 189.281 646.923 192.137 642.585C193.144 641.055 195.202 640.63 196.734 641.636C198.266 642.644 198.69 644.701 197.683 646.234C197.001 647.271 130.31 748.976 119.897 793.233C126.967 799.254 159.627 825.787 209.129 846.54C241.901 860.278 275.542 868.836 309.121 871.974C350.167 875.812 391.243 871.516 431.269 859.206L428.077 830.473C427.874 828.651 429.187 827.01 431.009 826.808C432.837 826.597 434.471 827.918 434.674 829.74L438.169 861.193C438.344 862.767 437.382 864.247 435.872 864.725C403.823 874.869 371.086 879.971 338.212 879.972Z" fill="#08294A" fill-opacity="0.8"/>
<path d="M389.904 555.362C388.265 555.363 386.841 554.149 386.618 552.48C378.061 488.126 399.799 441.615 419.543 413.928C440.941 383.921 464.071 369.334 465.045 368.727C466.6 367.759 468.649 368.234 469.617 369.791C470.585 371.348 470.109 373.395 468.553 374.363C468.225 374.569 445.364 389.06 424.784 418.01C405.819 444.69 384.942 489.525 393.199 551.605C393.44 553.422 392.163 555.091 390.345 555.333C390.197 555.354 390.05 555.362 389.904 555.362Z" fill="#08294A" fill-opacity="0.8"/>
<path d="M247.856 199.52C251.524 199.52 254.496 194.593 254.496 188.515C254.496 182.436 251.524 177.509 247.856 177.509C244.189 177.509 241.216 182.436 241.216 188.515C241.216 194.593 244.189 199.52 247.856 199.52Z" fill="#08294A" fill-opacity="0.8"/>
<path d="M301.413 215.811C305.96 215.811 309.647 209.701 309.647 202.163C309.647 194.625 305.96 188.515 301.413 188.515C296.865 188.515 293.178 194.625 293.178 202.163C293.178 209.701 296.865 215.811 301.413 215.811Z" fill="#08294A" fill-opacity="0.8"/>
<path d="M98.9835 118.273C127.776 118.273 151.117 94.9322 151.117 66.1394C151.117 37.3467 127.776 14.0056 98.9835 14.0056C70.1908 14.0056 46.8497 37.3467 46.8497 66.1394C46.8497 94.9322 70.1908 118.273 98.9835 118.273Z" fill="#FFFEFE" fill-opacity="0.05"/>
<path d="M397.404 141.023C391.702 141.023 386.728 136.819 385.921 131.01C380.813 94.226 351.763 82.5493 350.528 82.0704C344.52 79.8333 341.5 73.1628 343.736 67.1552C345.973 61.1476 352.692 58.1036 358.703 60.3416C360.461 60.996 401.854 76.9637 408.916 127.817C409.798 134.167 405.366 140.03 399.016 140.912C398.474 140.986 397.935 141.023 397.404 141.023Z" fill="white"/>
<path d="M407.14 173.369C413.813 173.369 419.222 167.959 419.222 161.286C419.222 154.613 413.813 149.204 407.14 149.204C400.467 149.204 395.057 154.613 395.057 161.286C395.057 167.959 400.467 173.369 407.14 173.369Z" fill="white"/>
<path d="M132.348 704.856C129.62 704.856 126.912 703.685 125.037 701.418C121.698 697.382 122.263 691.404 126.299 688.066C127.504 687.069 156.357 663.457 203.554 646.94C231.285 637.237 259.646 632.009 287.849 631.403C323.146 630.642 358.226 637.157 392.136 650.758C396.997 652.708 399.356 658.229 397.407 663.09C395.457 667.95 389.936 670.309 385.075 668.362C353.551 655.717 320.976 649.672 288.257 650.365C262.053 650.928 235.662 655.799 209.819 664.843C165.796 680.248 138.658 702.457 138.389 702.68C136.62 704.143 134.478 704.856 132.348 704.856Z" fill="white"/>
<path d="M341.895 826.606C341.072 826.606 340.235 826.498 339.402 826.27C253.784 802.999 230.605 747.424 229.66 745.07C227.709 740.209 230.069 734.688 234.93 732.738C239.778 730.792 245.283 733.133 247.247 737.968C247.371 738.263 252.592 750.531 266.957 765.125C280.325 778.703 304.607 797.159 344.377 807.97C349.431 809.343 352.415 814.554 351.04 819.607C349.893 823.828 346.069 826.606 341.895 826.606Z" fill="white"/>
<path d="M573.29 783.706C569.388 783.706 565.731 781.277 564.352 777.39C558.001 759.48 539.913 739.001 512.044 718.165C490.433 702.007 470.712 691.501 470.516 691.397C465.888 688.943 464.125 683.204 466.578 678.576C469.029 673.948 474.77 672.184 479.398 674.638C482.85 676.467 564.134 720.024 582.229 771.05C583.979 775.987 581.397 781.407 576.461 783.158C575.411 783.53 574.342 783.706 573.29 783.706Z" fill="white"/>
<path d="M62.6488 469.634C60.0561 469.634 57.4738 468.577 55.6009 466.5C52.0949 462.609 52.4059 456.613 56.2959 453.107C77.5553 433.945 61.4918 412.372 60.7976 411.463C57.6189 407.301 58.4154 401.35 62.5776 398.17C66.7398 394.991 72.6914 395.787 75.8701 399.951C76.5776 400.878 82.8537 409.357 85.2899 421.619C87.6645 433.57 86.7645 451.179 68.993 467.195C67.1817 468.829 64.9115 469.634 62.6488 469.634Z" fill="white"/>
<path d="M347.851 433C337.717 433 330.588 428.049 329.655 427.368L340.842 412.053L340.716 411.963C340.902 412.09 345.364 415.056 350.905 413.646C356.745 412.163 362.516 406.194 367.593 396.385C370.001 391.733 375.725 389.917 380.374 392.322C385.025 394.729 386.845 400.451 384.437 405.104C376.561 420.32 366.67 429.423 355.036 432.161C352.516 432.754 350.109 433 347.851 433Z" fill="white"/>
</svg>
