<svg width="780" height="395" viewBox="0 0 780 395" fill="none" xmlns="http://www.w3.org/2000/svg">
<g clip-path="url(#clip0)">
<path d="M302.029 130.637C281.649 125.542 262.898 129.718 241.849 130.929C180.541 134.437 118.607 133.059 58.0927 143.876V196.747L78.9741 194.158C111.549 194.158 205.348 192.696 237.882 191.736C258.345 191.109 279.979 197.75 299.732 196.622" fill="#09C7E7" fill-opacity="0.8"/>
<path d="M302.029 130.637C281.649 125.542 262.898 129.718 241.849 130.929C180.541 134.437 118.607 133.059 58.0927 143.876V196.747L78.9741 194.158C111.549 194.158 205.348 192.696 237.882 191.736C258.345 191.109 279.979 197.75 299.732 196.622" stroke="#0A3159" stroke-width="12.5289" stroke-linecap="round" stroke-linejoin="round"/>
<path d="M299.481 130.635C306.706 138.779 306.163 180.542 303.198 196.328" stroke="#0A3159" stroke-width="12.5289" stroke-linecap="round" stroke-linejoin="round"/>
<path d="M130.884 248.281C121.532 234.621 115.785 218.818 114.179 202.342" stroke="#0A3159" stroke-width="12.5289" stroke-linecap="round" stroke-linejoin="round"/>
<path d="M147.589 206.518C148.591 203.804 141.826 77.5964 176.823 133.976C179.287 119.359 184.883 114.598 192.609 116.227C197.412 116.227 202.382 121.406 202.758 133.392C209.649 121.573 212.572 113.847 222.595 115.935C228.358 115.601 229.403 126.918 228.4 131.596C267.281 86.2831 271.458 229.697 256.172 254.253" fill="#FDFEFE"/>
<path d="M147.589 206.518C148.591 203.804 141.826 77.5964 176.823 133.976C179.287 119.359 184.883 114.598 192.609 116.227C197.412 116.227 202.382 121.406 202.758 133.392C209.649 121.573 212.572 113.847 222.595 115.935C228.358 115.601 229.403 126.918 228.4 131.596C267.281 86.2831 271.458 229.697 256.172 254.253" stroke="#0A3159" stroke-width="12.5289" stroke-linecap="round" stroke-linejoin="round"/>
<path d="M137.818 275.638C134.445 268.969 132.094 261.831 130.843 254.464C175.488 255.424 219.422 254.464 262.396 260.394C263.106 271.461 270.415 281.986 271.459 292.343" fill="#E8E5ED"/>
<path d="M137.818 275.638C134.445 268.969 132.094 261.831 130.843 254.464C175.488 255.424 219.422 254.464 262.396 260.394C263.106 271.461 270.415 281.986 271.459 292.343" stroke="#0A3159" stroke-width="12.5289" stroke-linecap="round" stroke-linejoin="round"/>
<path d="M144.626 384.218C152.978 359.912 143.707 308.084 133.684 283.653C178.704 276.344 223.098 287.119 269.079 288.497C277.432 320.738 292.132 355.318 294.972 388.394" stroke="#0A3159" stroke-width="12.5289" stroke-linecap="round" stroke-linejoin="round"/>
<path d="M57.8835 143.874C41.596 143.874 22.051 146.129 7.05811 146.463C5.93683 164.169 6.00659 181.931 7.26693 199.627C22.9849 197.162 38.8848 196.045 54.793 196.286" stroke="#0A3159" stroke-width="12.5289" stroke-linecap="round" stroke-linejoin="round"/>
<path d="M376.534 161.164C386.641 156.612 391.569 154.19 403.095 149.805C436.798 137.276 451.457 146.255 466.491 177.285C477.183 199.419 494.389 287.915 531.683 283.655C575.2 278.685 551.688 178.162 549.892 152.645C547.804 122.492 538.407 49.1981 589.441 63.7316C626.36 74.2558 643.733 145.837 678.855 149.721C719.282 154.232 702.619 93.9261 701.992 67.0309C700.823 13.9921 722.038 2.63258 773.657 7.18473" stroke="#0A3159" stroke-width="12.5289" stroke-linecap="round" stroke-linejoin="round"/>
<path d="M299.481 196.621C325.541 195.201 355.234 176.616 376.533 161.164C351.476 152.06 327.88 137.151 302.028 130.635" stroke="#0A3159" stroke-width="12.5289" stroke-linecap="round" stroke-linejoin="round"/>
</g>
<defs>
<clipPath id="clip0">
<rect width="779.921" height="394.45" fill="white"/>
</clipPath>
</defs>
</svg>
